<svg style="width:0;height:0;position:absolute;" xmlns="http://www.w3.org/2000/svg" aria-hidden="true" focusable="false">
        <!-- icons -->
        <g id="latepayments">
            <g id="latepayments1">
                <path d="m80.5 25c-21.8 0-39.5 17.7-39.5 39.5s17.7 39.5 39.5 39.5 39.5-17.7 39.5-39.5-17.7-39.5-39.5-39.5zm3.3 42.8h-26.3c-1.8 0-3.3-1.5-3.3-3.3s1.5-3.3 3.3-3.3h19.8v-26.3c0-1.8 1.5-3.3 3.3-3.3s3.3 1.5 3.3 3.3v32.9z"></path>
            </g>
            <g id="latepayments2">
                <path d="M112.3,108.6H0l56.1-97.2L112.3,108.6z M3.4,106.7h105.5L56.1,15.3L3.4,106.7z"></path>
            </g>
        </g>
        <g id="collection">
            <g id="collection1">
                <path d="M0,17h23.4v36.1H0V17z"></path>
                <path d="M32.9,17h23.4v36.1H32.9V17z"></path>
                <path d="M32.9,62.7h23.4v36.1H32.9V62.7z"></path>
                <path d="M0,62.7h23.4v36.1H0V62.7z"></path>
            </g>
            <g id="collection2">
                <path d="m75.9 104.1c-24.3 0-44.1-19.8-44.1-44.1s19.8-44.1 44.1-44.1 44.1 19.8 44.1 44.1-19.8 44.1-44.1 44.1zm0-86c-23.1 0-41.9 18.8-41.9 41.9s18.8 41.9 41.9 41.9 41.9-18.8 41.9-41.9-18.7-41.9-41.9-41.9z"></path>
            </g>
        </g>
        <g id="chargeoffs">
            <g id="chargeoffs1">
                <path d="m109.8 115.2-7.5-26.3c-0.2-0.8-0.7-1.5-1.3-2-0.7-0.5-1.4-0.8-2.3-0.8h-30.1v-17.8c6.7-3 12.1-8.2 15.4-14.7s4.2-14 2.7-21.1-5.5-13.5-11.2-18.1-12.8-7.1-20.1-7.1-14.4 2.5-20.1 7.1-9.6 11-11.2 18.1c-1.5 7.1-0.6 14.6 2.7 21.1s8.7 11.7 15.4 14.7v17.9h-30c-0.8 0-1.6 0.3-2.3 0.8s-1.1 1.2-1.4 2l-7.5 26.3c-0.2 0.6-0.2 1.2-0.1 1.7 0.1 0.6 0.3 1.1 0.7 1.6s0.8 0.8 1.3 1.1 1.1 0.4 1.7 0.4h101.5c0.6 0 1.2-0.1 1.7-0.4s1-0.6 1.3-1.1c0.4-0.5 0.6-1 0.7-1.6 0.2-0.6 0.2-1.2 0-1.8zm-52.7-74.1-4.1-0.9c-5.4-1.2-8-4.3-8-8.4 0-4.7 3.4-8.6 8.7-9.6v-6.2h3.6v6c3.9 0.2 7.9 1.9 9.7 4.5l-2.8 2.9c-1.7-2.8-5-3.9-8-3.9-4.4 0-6.7 2.5-6.7 5.7 0 2.9 2 4.7 5.2 5.4l4.1 0.9c5 1.1 8.1 4.1 8.1 8.5 0 4.9-3.7 8.9-9.6 9.7v6.1h-3.6v-6c-4.3-0.3-8.5-2.2-10.4-5.1l2.8-2.9c2 3.1 5.8 4.5 9.3 4.5 4.7 0 7.1-2.4 7.1-5.6 0-2.7-1.6-4.7-5.4-5.6zm-47.4 71.4 5.4-18.8h80.8l5.4 18.8h-91.6z"></path>
            </g>
            <g id="chargeoffs2">
                <path d="M119.1,104.2H14.9V0h104.2V104.2z M16.9,102.2h100.2V2H16.9V102.2z"></path>
            </g>
        </g>
        <g id="medicald">
            <g id="medicald1">
                <path d="m112.1 6.6h-70.2c-4.5 0-8 3.6-8 8v90.1c0 4.5 3.6 8 8 8h70.1c4.5 0 8-3.6 8-8v-90c0-4.5-3.6-8.1-7.9-8.1zm-15.5 87.5h-39.3c-2.2 0-4-1.8-4-4s1.8-4 4-4h39.3c2.2 0 4 1.8 4 4 0.1 2.2-1.7 4-4 4zm0-18.1h-39.3c-2.2 0-4-1.8-4-4s1.8-4 4-4h39.3c2.2 0 4 1.8 4 4 0.1 2.3-1.7 4-4 4zm3.2-30.2h-6.3l-5.9 10.6c-0.7 1.2-2 2-3.5 2s-2.8-0.8-3.5-2l-10.8-19.1-3.6 6.5c-0.7 1.2-2 2-3.5 2h-8.6c-2.2 0-4-1.8-4-4s1.8-4 4-4h6.3l5.9-10.6c0.7-1.2 2-2 3.5-2s2.8 0.8 3.5 2l10.7 19.2 3.6-6.5c0.7-1.2 2-2 3.5-2h8.6c2.2 0 4 1.8 4 4 0.1 2.1-1.7 3.9-3.9 3.9z"></path>
            </g>
            <g id="medicald2">
                <path d="M111.4,113.4H0l55.7-95.5L111.4,113.4z M4.3,110.9H107L55.7,22.8L4.3,110.9z"></path>
            </g>
        </g>
        <g id="social-instagram">
            <path d="M21 42C32.598 42 42 32.598 42 21C42 9.40202 32.598 0 21 0C9.40202 0 0 9.40202 0 21C0 32.598 9.40202 42 21 42Z" fill="#929292"></path>
            <path d="M20.9995 11.3647C24.1371 11.3647 24.5127 11.3647 25.7529 11.4339C26.499 11.4404 27.2381 11.5775 27.9369 11.839C28.4427 12.0355 28.902 12.335 29.2857 12.7187C29.6694 13.1024 29.969 13.5617 30.1654 14.0675C30.4269 14.7663 30.5641 15.5054 30.5705 16.2515C30.6298 17.4917 30.6397 17.8673 30.6397 21.0049C30.6397 24.1426 30.6397 24.5181 30.5705 25.7583C30.5641 26.5044 30.4269 27.2436 30.1654 27.9423C29.969 28.4481 29.6694 28.9075 29.2857 29.2911C28.902 29.6748 28.4427 29.9744 27.9369 30.1708C27.2381 30.4323 26.499 30.5695 25.7529 30.576C24.5127 30.6353 24.1421 30.6451 20.9995 30.6451C17.8569 30.6451 17.4863 30.6452 16.2461 30.576C15.5 30.5695 14.7608 30.4323 14.0621 30.1708C13.5604 29.971 13.1055 29.6693 12.7262 29.2849C12.3469 28.9005 12.0514 28.4417 11.8583 27.9374C11.5968 27.2386 11.4596 26.4995 11.4531 25.7534C11.3938 24.5132 11.384 24.1376 11.384 21C11.384 17.8623 11.384 17.4868 11.4531 16.2466C11.4596 15.5005 11.5968 14.7613 11.8583 14.0626C12.0548 13.5637 12.3519 13.1107 12.731 12.7315C13.1102 12.3524 13.5632 12.0553 14.0621 11.8588C14.7608 11.5973 15.5 11.4601 16.2461 11.4536C17.4863 11.3943 17.8618 11.3845 20.9995 11.3845V11.3647ZM20.9995 9.26468C17.8075 9.26468 17.4073 9.26469 16.1522 9.33387C15.176 9.35405 14.2104 9.53949 13.2962 9.88233C12.5084 10.1824 11.793 10.6457 11.1969 11.2418C10.6008 11.8379 10.1375 12.5534 9.83737 13.3412C9.49453 14.2553 9.30908 15.221 9.2889 16.1972C9.23455 17.4522 9.21973 17.8524 9.21973 21.0444C9.21973 24.2364 9.21973 24.6367 9.2889 25.8917C9.32827 26.8554 9.52869 27.8057 9.88184 28.7033C10.1819 29.4911 10.6452 30.2065 11.2413 30.8026C11.8375 31.3987 12.5529 31.862 13.3407 32.1621C14.2549 32.5049 15.2205 32.6904 16.1967 32.7106C17.4517 32.7649 17.852 32.7797 21.044 32.7797C24.236 32.7797 24.6362 32.7797 25.8913 32.7106C26.8674 32.6904 27.8331 32.5049 28.7473 32.1621C29.535 31.862 30.2505 31.3987 30.8466 30.8026C31.4427 30.2065 31.906 29.4911 32.2061 28.7033C32.5489 27.7891 32.7344 26.8234 32.7546 25.8473C32.8089 24.5922 32.8237 24.192 32.8237 21C32.8237 17.808 32.8237 17.4077 32.7546 16.1527C32.7344 15.1765 32.5489 14.2109 32.2061 13.2967C31.906 12.5089 31.4427 11.7935 30.8466 11.1974C30.2505 10.6013 29.535 10.138 28.7473 9.83786C27.8331 9.49502 26.8674 9.30956 25.8913 9.28938C24.6362 9.23503 24.236 9.22021 21.044 9.22021L20.9995 9.26468Z" fill="white"></path>
            <path d="M20.9991 14.9614C19.8048 14.9614 18.6374 15.3156 17.6445 15.979C16.6515 16.6425 15.8776 17.5855 15.4206 18.6889C14.9636 19.7922 14.844 21.0062 15.077 22.1775C15.3099 23.3488 15.885 24.4247 16.7295 25.2691C17.5739 26.1136 18.6498 26.6887 19.8211 26.9216C20.9924 27.1546 22.2064 27.035 23.3097 26.578C24.4131 26.121 25.3561 25.3471 26.0196 24.3541C26.683 23.3612 27.0372 22.1938 27.0372 20.9995C27.0372 19.3981 26.401 17.8623 25.2687 16.73C24.1363 15.5976 22.6005 14.9614 20.9991 14.9614ZM20.9991 24.9179C20.2241 24.9179 19.4665 24.6881 18.8221 24.2575C18.1778 23.827 17.6755 23.215 17.379 22.499C17.0824 21.783 17.0048 20.9952 17.156 20.2351C17.3072 19.475 17.6804 18.7768 18.2284 18.2288C18.7764 17.6809 19.4745 17.3077 20.2346 17.1565C20.9947 17.0053 21.7826 17.0829 22.4985 17.3795C23.2145 17.676 23.8265 18.1783 24.2571 18.8226C24.6876 19.467 24.9174 20.2246 24.9174 20.9995C24.9174 22.0388 24.5046 23.0354 23.7698 23.7702C23.0349 24.5051 22.0383 24.9179 20.9991 24.9179V24.9179Z" fill="white"></path>
            <path d="M27.2745 16.1374C28.055 16.1374 28.6877 15.5047 28.6877 14.7242C28.6877 13.9437 28.055 13.311 27.2745 13.311C26.494 13.311 25.8613 13.9437 25.8613 14.7242C25.8613 15.5047 26.494 16.1374 27.2745 16.1374Z" fill="white"></path>
        </g>
        <g id="social-facebook">
            <path d="M21.2119 42C32.8099 42 42.2119 32.598 42.2119 21C42.2119 9.40202 32.8099 0 21.2119 0C9.61393 0 0.211914 9.40202 0.211914 21C0.211914 32.598 9.61393 42 21.2119 42Z" fill="#929292"></path>
            <path d="M31.4306 9.5166H10.9939C10.6585 9.5166 10.3367 9.64986 10.0995 9.88708C9.86226 10.1243 9.729 10.4461 9.729 10.7815V31.2182C9.729 31.5537 9.86226 31.8755 10.0995 32.1127C10.3367 32.3499 10.6585 32.4832 10.9939 32.4832H21.9979V23.5891H18.9888V20.1302H21.9831V17.5707C21.9831 14.606 23.7916 12.9902 26.4302 12.9902C27.3231 12.9862 28.2156 13.0323 29.1034 13.1286V16.2267H27.2702C25.8274 16.2267 25.5506 16.9135 25.5506 17.9166V20.1302H28.9848L28.5351 23.5891H25.5704V32.4832H31.4257C31.7612 32.4832 32.0829 32.3499 32.3202 32.1127C32.5574 31.8755 32.6907 31.5537 32.6907 31.2182V10.7815C32.6907 10.4469 32.5581 10.1259 32.3219 9.88883C32.0857 9.65175 31.7653 9.51791 31.4306 9.5166Z" fill="white"></path>
        </g>
        <g id="social-twitter">
            <path d="M21.4233 42C33.0213 42 42.4233 32.598 42.4233 21C42.4233 9.40202 33.0213 0 21.4233 0C9.82536 0 0.42334 9.40202 0.42334 21C0.42334 32.598 9.82536 42 21.4233 42Z" fill="#929292"></path>
            <path d="M33.1823 13.7068C32.3007 14.0954 31.3667 14.3518 30.4103 14.4678C31.419 13.8648 32.1728 12.9142 32.5301 11.7946C31.5835 12.3575 30.5472 12.7536 29.4665 12.9656C28.8042 12.2608 27.9455 11.7712 27.0016 11.5602C26.0578 11.3491 25.0723 11.4265 24.1729 11.7822C23.2735 12.1379 22.5018 12.7555 21.9576 13.5551C21.4134 14.3546 21.1219 15.2992 21.1209 16.2663C21.1215 16.637 21.1629 17.0066 21.2444 17.3682C19.3272 17.2745 17.4509 16.7798 15.7368 15.9159C14.0227 15.052 12.5088 13.8382 11.2929 12.3529C10.6797 13.4121 10.4917 14.6646 10.7669 15.8571C11.0421 17.0496 11.7599 18.0931 12.7752 18.7765C12.0081 18.7522 11.2577 18.5456 10.5863 18.1737V18.2379C10.5871 19.352 10.9734 20.4316 11.6794 21.2935C12.3855 22.1554 13.368 22.7465 14.4602 22.9666C13.7493 23.1573 13.0046 23.1861 12.2811 23.0506C12.5884 24.0096 13.1882 24.8483 13.9964 25.4491C14.8046 26.0499 15.7806 26.3827 16.7875 26.4007C15.0779 27.7375 12.9689 28.4614 10.7988 28.4562C10.414 28.4558 10.0295 28.4327 9.64746 28.3871C11.8569 29.8104 14.431 30.5638 17.0592 30.5562C25.9533 30.5562 30.7908 23.2038 30.7908 16.8296C30.7908 16.6172 30.7908 16.4096 30.7908 16.2021C31.7296 15.5187 32.5393 14.6738 33.1823 13.7068V13.7068Z" fill="white"></path>
        </g>
        <g id="social-linkedin">
            <path d="M21.6353 42C33.2332 42 42.6353 32.598 42.6353 21C42.6353 9.40202 33.2332 0 21.6353 0C10.0373 0 0.635254 9.40202 0.635254 21C0.635254 32.598 10.0373 42 21.6353 42Z" fill="#929292"></path>
            <path d="M10.1764 16.9778H15.0534V32.6611H10.1764V16.9778ZM12.6174 9.18555C13.1764 9.18555 13.7228 9.35131 14.1876 9.66187C14.6524 9.97243 15.0147 10.4139 15.2286 10.9303C15.4425 11.4468 15.4985 12.015 15.3894 12.5633C15.2804 13.1115 15.0112 13.6152 14.6159 14.0104C14.2206 14.4057 13.717 14.6749 13.1688 14.784C12.6205 14.893 12.0522 14.837 11.5358 14.6231C11.0193 14.4092 10.5779 14.0469 10.2673 13.5821C9.95678 13.1173 9.79102 12.5709 9.79102 12.0119C9.79102 11.2623 10.0888 10.5434 10.6188 10.0134C11.1489 9.48332 11.8678 9.18555 12.6174 9.18555" fill="white"></path>
            <path d="M18.1113 16.9779H22.7807V19.1224H22.8697C23.3374 18.3231 24.0132 17.6657 24.8251 17.2202C25.6369 16.7747 26.5544 16.5577 27.4798 16.5925C32.421 16.5925 33.3252 19.8388 33.3252 24.0586V32.6612H28.4532V25.037C28.4532 23.2186 28.4236 20.8765 25.9233 20.8765C23.4231 20.8765 22.9982 22.8529 22.9982 24.9035V32.6612H18.1311L18.1113 16.9779Z" fill="white"></path>
        </g>
        <!-- end icons -->
    </svg>