<svg xmlns="http://www.w3.org/2000/svg" width="55" height="50" viewBox="0 0 55 50" fill="none" data-inject-url="https://secureclientstorage.s3.amazonaws.com/medical_debt_fLxbVAI.svg?X-Amz-Algorithm=AWS4-HMAC-SHA256&amp;X-Amz-Credential=AKIAJMN2KCFC4N5LU6JQ%2F20231106%2Fus-east-2%2Fs3%2Faws4_request&amp;X-Amz-Date=20231106T173817Z&amp;X-Amz-Expires=3600&amp;X-Amz-SignedHeaders=host&amp;X-Amz-Signature=c3e2f03fe03ffc2620f453ce7ad1b3c47c38b5751dd4d9eed5f7f02cc739a38e" id="dispute_med" class="img-svginject" style="height: 100%" crossorigin="anonymous">
<path d="M53.7862 23.0383C53.5845 21.1799 52.965 17.8665 50.8185 18.0826C50.7465 18.0105 50.6456 17.9673 50.516 17.9529C48.0957 17.7944 45.6467 17.8377 43.2121 17.7656C43.2409 15.7488 43.2841 13.7175 43.2841 11.7006C43.2841 11.6718 43.2841 11.6574 43.2841 11.6286C43.2841 11.6142 43.2841 11.5998 43.2841 11.5854C43.2697 11.4845 43.2265 11.3981 43.1544 11.3405C40.7486 8.79058 38.1267 6.4712 35.5192 4.123C34.4819 3.201 33.3871 1.74598 32.2057 0.996863C32.1769 0.96805 32.1481 0.95364 32.1193 0.924828C32.1193 0.924828 32.0905 0.910415 32.0761 0.896009C32.0761 0.896009 32.0617 0.896009 32.0473 0.896009C32.0473 0.896009 32.0185 0.896017 32.0041 0.881611C31.1541 0.478239 28.7771 1.02568 27.8695 1.0689C19.0386 1.48668 10.1643 0.838388 1.33337 0.809576C1.10287 0.809576 0.958811 0.939227 0.88678 1.09769C0.88678 1.12651 0.886766 1.14092 0.87236 1.16973C0.857954 1.21295 0.843549 1.25618 0.829143 1.3138C0.108835 11.3405 0.440172 21.3672 0.238485 31.3938C0.152048 35.8741 -0.409776 40.8299 0.569843 45.2237C1.03084 47.2694 2.86041 48.3067 4.74762 48.7244C7.5136 49.3295 10.6974 48.7677 13.4922 48.6812C18.7936 48.5227 24.0951 48.5372 29.3966 48.5804C33.9201 48.6236 38.4004 49.1134 42.9095 49.2431C45.2289 49.3151 49.666 49.5024 51.5244 47.716C54.7514 44.5899 53.959 38.424 53.8582 34.3759C53.7573 30.5871 54.204 26.8271 53.8006 23.0239L53.7862 23.0383ZM43.1976 18.7884C43.6298 18.7884 44.0764 18.8173 44.5086 18.8173C44.1196 19.5808 43.9035 20.402 43.6875 21.2375C43.529 21.8714 44.5086 22.1451 44.6815 21.5112C44.912 20.5748 45.1713 19.6528 45.6899 18.8317C45.7764 18.8317 45.8628 18.8317 45.9492 18.8317C45.4162 19.5808 45.1137 20.5172 44.912 21.396C44.7679 22.0443 45.7475 22.3036 45.8916 21.6697C46.1221 20.6757 46.439 19.5952 47.2458 18.9325C47.2746 18.9181 47.2746 18.8893 47.3034 18.8605C47.3322 18.8605 47.361 18.8605 47.3754 18.8605C46.9144 19.6384 46.6551 20.5172 46.295 21.3527C46.0356 21.9434 46.9144 22.4764 47.1738 21.8714C47.5771 20.9494 47.7932 19.8833 48.4271 19.0766C48.4703 19.019 48.5135 18.9469 48.5279 18.8893C48.7296 18.8893 48.9313 18.9037 49.133 18.9181C47.8796 20.2435 47.8652 22.8942 47.7068 24.4789C47.4763 26.9568 47.3034 29.4058 47.2458 31.8837C47.2458 32.4455 47.7068 35.0818 46.4534 34.981C45.2433 34.8801 44.0044 34.9522 42.7943 34.9666C42.9672 29.5787 43.1112 24.1908 43.1832 18.7884H43.1976ZM32.2202 2.7112C33.0845 3.22982 33.8337 3.97893 34.7845 4.8433C37.1183 6.96101 39.452 9.03549 41.6562 11.2829C38.6885 11.5278 35.7497 11.9599 32.7676 12.1472C31.6583 12.2192 32.0185 5.70768 32.2202 2.7112ZM44.0764 48.2778C43.5722 47.4135 42.9383 46.6356 42.5061 45.7424C42.4053 45.5407 42.1172 45.7136 42.218 45.9152C42.6214 46.7508 43.1976 47.4855 43.673 48.2634C43.601 48.2634 43.529 48.2634 43.4569 48.2634C43.4569 48.249 43.4569 48.2346 43.4569 48.2202C42.8375 47.4855 42.0884 46.7652 41.9011 45.7856C41.8579 45.5695 41.5265 45.6559 41.5697 45.872C41.7426 46.8084 42.4197 47.5287 43.0248 48.2346C42.7223 48.2346 42.4341 48.2058 42.1604 48.2058C41.7282 47.2838 41.4257 46.3042 40.9215 45.3966C40.8062 45.2093 40.5181 45.3822 40.6189 45.5695C41.0943 46.4051 41.3825 47.3126 41.7715 48.1914C41.6274 48.1914 41.4977 48.1914 41.3537 48.177C41.1664 47.183 40.5901 46.3042 40.0571 45.4543C39.9419 45.267 39.6394 45.4542 39.7546 45.6271C40.2588 46.4195 40.7774 47.2406 40.9935 48.1626C40.7342 48.1626 40.4749 48.1482 40.2156 48.1338C39.5817 47.2838 39.9563 45.9008 38.9767 45.2237C38.7894 45.0941 38.6165 45.3966 38.8038 45.5263C39.6105 46.0737 39.4088 47.2694 39.8266 48.1194C39.5817 48.1194 39.3512 48.105 39.1063 48.0906C38.7029 47.1974 38.2419 46.3186 38.1555 45.3102C38.1411 45.0941 37.7954 45.0941 37.8098 45.3102C37.8962 46.3042 38.3284 47.183 38.7317 48.0762C38.4724 48.0762 38.1987 48.0618 37.9394 48.0474C37.4352 47.1686 37.6801 46.0305 37.2191 45.1085C37.1183 44.9068 36.8301 45.0797 36.931 45.2814C37.3631 46.1457 37.1614 47.1686 37.5504 48.0185C37.2623 48.0185 36.9742 48.0041 36.6861 47.9897C36.7149 47.9609 36.7437 47.9177 36.7437 47.8601C36.7437 46.9525 36.7005 46.1025 36.3259 45.267C36.2395 45.0653 35.9369 45.2381 36.0234 45.4398C36.3691 46.2178 36.3979 47.0245 36.3979 47.8601C36.3979 47.9177 36.4123 47.9465 36.4412 47.9753C36.1818 47.9753 35.9081 47.9465 35.6488 47.9465C35.5048 46.9813 35.62 45.9873 35.1302 45.1085C35.0149 44.9212 34.7268 45.0941 34.8277 45.2814C35.2887 46.0881 35.1878 47.0389 35.3031 47.9321C35.0149 47.9321 34.7412 47.9033 34.4531 47.8889C34.4243 47.0245 34.2803 46.1746 34.165 45.3102C34.1362 45.0941 33.8048 45.1805 33.8336 45.3966C33.9489 46.2178 34.0786 47.0389 34.1074 47.8601C33.8481 47.8601 33.5744 47.8313 33.315 47.8313C33.3006 47.0965 33.243 46.3474 32.9837 45.6415C32.9117 45.4398 32.5803 45.5263 32.6523 45.728C32.8972 46.3907 32.9549 47.0965 32.9837 47.8024C32.71 47.8024 32.4362 47.7736 32.1625 47.7736C32.0905 47.111 31.9896 46.4627 32.0185 45.8C32.0185 45.5839 31.6871 45.5839 31.6727 45.8C31.6439 46.4627 31.7303 47.1109 31.8024 47.7592C31.6151 47.7592 31.4278 47.7592 31.2406 47.7448C31.1397 46.9669 30.9092 46.2034 30.938 45.411C30.938 45.1949 30.6067 45.1949 30.5923 45.411C30.5779 46.2034 30.7939 46.9525 30.8948 47.7304C30.6211 47.7304 30.3474 47.716 30.0592 47.7016C29.944 46.8805 29.8431 46.0593 29.7279 45.2526C29.6991 45.0365 29.3678 45.1229 29.3966 45.339C29.5118 46.1169 29.6127 46.9093 29.7135 47.6872C29.4686 47.6872 29.2381 47.6728 28.9932 47.6584C28.8924 46.9525 28.7771 46.261 28.5898 45.5839C28.5322 45.3678 28.2008 45.4687 28.2585 45.6703C28.4313 46.3186 28.5466 46.9813 28.6474 47.644C28.5178 47.644 28.3881 47.644 28.2585 47.644C28.0712 46.9813 27.9271 46.333 28.028 45.6271C28.0568 45.411 27.7254 45.3246 27.6966 45.5407C27.5814 46.2754 27.7254 46.9381 27.8983 47.6296C27.711 47.6296 27.5237 47.6296 27.3365 47.6152C27.2068 46.8372 26.8899 46.1025 26.7602 45.3102C26.7314 45.0941 26.4001 45.1805 26.4289 45.3966C26.5442 46.1457 26.8466 46.8516 26.9763 47.6008C26.8178 47.6008 26.6594 47.6008 26.5009 47.5864C26.5153 47.5575 26.5297 47.5143 26.5153 47.4711C26.2704 46.5347 25.9535 45.6271 25.7806 44.6907C25.7374 44.4746 25.406 44.5611 25.4493 44.7772C25.6221 45.728 25.9535 46.6355 26.184 47.5575C26.184 47.5575 26.184 47.5576 26.1984 47.572C25.9967 47.572 25.795 47.572 25.5933 47.572C25.5933 47.5576 25.5933 47.5431 25.5933 47.5287C25.4349 46.5779 24.801 45.7712 24.801 44.7916C24.801 44.5755 24.4552 44.5755 24.4552 44.7916C24.4552 45.7856 25.0747 46.6067 25.2476 47.572C24.9451 47.572 24.6425 47.572 24.3256 47.572C24.3256 47.5576 24.34 47.5431 24.34 47.5287C24.2968 46.5203 23.807 45.6703 23.4756 44.7483C23.4036 44.5467 23.0722 44.6331 23.1443 44.8348C23.4612 45.728 23.951 46.5491 23.9943 47.5143C23.9943 47.5287 23.9942 47.5431 24.0086 47.5431C23.8502 47.5431 23.6773 47.5431 23.5188 47.5431C23.5476 47.5143 23.5477 47.4567 23.5333 47.4135C23.2163 46.4339 22.5536 45.5983 22.3952 44.5755C22.3663 44.3594 22.035 44.4458 22.0638 44.6619C22.2223 45.6992 22.885 46.5203 23.2019 47.4999C23.2019 47.5143 23.2307 47.5287 23.2307 47.5431C22.957 47.5431 22.6977 47.5431 22.424 47.5431C22.0062 46.5635 21.4588 45.6415 21.3147 44.5755C21.2859 44.3594 20.9545 44.4458 20.9833 44.6619C21.1274 45.6847 21.6316 46.5923 22.0494 47.5287C21.8333 47.5287 21.6172 47.5287 21.4011 47.5287C21.4155 47.4855 21.4299 47.4279 21.4011 47.3847C20.9689 46.4339 20.6088 45.4254 20.1478 44.489C20.047 44.2874 19.7588 44.4602 19.8453 44.6619C20.3063 45.5983 20.652 46.5923 21.0842 47.5431C20.8537 47.5431 20.6232 47.5431 20.3783 47.5431C19.9029 46.5923 19.2402 45.7136 19.0673 44.6331C19.0385 44.417 18.7072 44.5034 18.736 44.7195C18.8945 45.7568 19.514 46.6211 19.9894 47.5431C19.73 47.5431 19.4707 47.5431 19.2114 47.5431C18.7936 46.7364 18.4191 45.9008 18.1454 45.0221C18.0877 44.8204 17.7564 44.9068 17.814 45.1085C18.0733 45.9585 18.4335 46.7508 18.8368 47.5431C18.5919 47.5431 18.3614 47.5431 18.1165 47.5431C17.7132 46.7076 17.2954 45.872 16.9496 45.0077C16.8632 44.806 16.5462 44.8924 16.6183 45.0941C16.9496 45.9297 17.3386 46.7364 17.7276 47.5431C17.5259 47.5431 17.3242 47.5431 17.1369 47.5431C16.6327 46.5203 15.9268 45.5263 15.8692 44.3594C15.8692 44.1433 15.5234 44.1433 15.5234 44.3594C15.5811 45.5263 16.2293 46.5203 16.748 47.5431C16.5463 47.5431 16.359 47.5431 16.1573 47.5431C15.6243 46.5203 14.9184 45.4975 14.6591 44.3594C14.6014 44.1433 14.2845 44.2297 14.3277 44.4458C14.587 45.5551 15.2353 46.5491 15.7683 47.5431C15.5522 47.5431 15.3361 47.5431 15.1056 47.5575C14.5006 46.6067 13.9676 45.6271 13.3193 44.7051C13.1896 44.5323 12.9015 44.7051 13.0312 44.878C13.6362 45.7424 14.1549 46.6644 14.7167 47.5575C14.3277 47.5575 13.9387 47.5719 13.5642 47.5864C12.8727 46.6644 12.2244 45.6991 11.7346 44.6331C11.6482 44.4314 11.3457 44.6043 11.4321 44.806C11.8931 45.8 12.4982 46.7076 13.1464 47.6008C12.8295 47.6008 12.5126 47.6152 12.1956 47.6296C11.5329 46.7508 10.9711 45.8144 10.5389 44.8204C10.4524 44.6187 10.1643 44.7916 10.2508 44.9932C10.6542 45.944 11.2016 46.8228 11.8066 47.644C11.5473 47.644 11.288 47.644 11.0287 47.6584C10.7838 47.2982 10.5533 46.9237 10.3516 46.5635C10.2508 46.405 9.4008 44.9933 9.55927 44.8492C9.73214 44.7051 9.48726 44.4602 9.31439 44.6043C8.95424 44.9212 9.61691 45.9152 9.76098 46.2034C10.0203 46.6932 10.3084 47.1974 10.6254 47.6728C10.5245 47.6728 10.4093 47.6728 10.3084 47.6872C9.5737 46.8084 8.65167 45.7856 8.65167 44.7195C8.65167 44.5034 8.30594 44.5034 8.30594 44.7195C8.30594 45.8144 9.14151 46.8228 9.89063 47.7016C9.68894 47.7016 9.50165 47.7304 9.29997 47.7304C8.8966 47.3847 8.59408 46.9093 8.32036 46.4771C8.11867 46.1601 7.31193 44.9789 7.64327 44.6043C7.78733 44.4314 7.54241 44.2009 7.39835 44.3594C7.02379 44.7916 7.44158 45.5407 7.64327 45.9585C7.93139 46.5635 8.33478 47.2406 8.82458 47.7448C8.6229 47.7448 8.43561 47.7592 8.23393 47.7736C7.35515 46.9093 6.57719 45.944 6.31788 44.7195C6.27467 44.5034 5.94335 44.5899 5.98657 44.806C6.24588 45.9873 6.93735 46.9381 7.7585 47.788C7.22547 47.8024 6.70684 47.788 6.17381 47.7592C5.78485 47.2406 5.45353 46.6932 5.16541 46.1313C5.02135 45.8576 4.89168 45.5839 4.74762 45.3246C4.68999 45.1949 4.54593 45.0365 4.4739 44.878C4.50271 44.7771 4.45948 44.6619 4.32983 44.6475C4.30102 44.6475 4.27222 44.6475 4.25781 44.6475C4.14257 44.6475 4.07056 44.7628 4.09937 44.8636C4.14259 45.0365 4.28661 45.1517 4.37304 45.3102C4.54592 45.6415 4.71881 45.9873 4.89169 46.3186C5.151 46.8084 5.43913 47.2838 5.75607 47.7448C5.58319 47.7304 5.39592 47.7016 5.22305 47.6728C4.51714 46.7652 3.20617 45.7136 3.32142 44.489C3.33583 44.2729 3.00446 44.2729 2.97565 44.489C2.8748 45.6848 3.95528 46.6932 4.7044 47.5864C4.18578 47.4711 3.66716 47.3271 3.17735 47.0966C0.0800298 45.6703 1.05965 39.3748 1.05965 36.6377C1.05965 32.6472 1.21811 28.6423 1.23251 24.6518C1.26133 17.0021 1.18932 9.38125 1.70794 1.74599C9.06949 1.78921 16.431 2.14935 23.7926 2.09172C25.5501 2.09172 27.3221 2.00529 29.0796 1.91886C29.9008 1.87564 30.5635 1.99088 31.1541 2.17816C30.9957 5.65004 30.9236 9.12194 30.8804 12.5938C30.8804 12.8675 31.1109 13.1124 31.399 13.1124C35.0005 13.026 38.5589 12.4065 42.1604 12.1616C42.1316 19.8401 41.9299 27.5186 41.6706 35.1971C41.8003 39.274 40.9215 46.0305 44.8543 48.2058C44.5518 48.2058 44.2637 48.2058 43.9756 48.2058L44.0764 48.2778ZM52.9218 30.5871C52.8354 33.209 52.893 35.8021 52.8786 38.424C52.8786 40.9163 52.7633 43.5382 51.6973 45.8288C51.0634 47.183 49.5796 47.8169 47.8796 48.105C47.8076 48.0329 47.7068 47.9897 47.5771 47.9897C41.8435 47.7448 42.7799 40.3113 42.7943 36.0038C44.451 36.0038 46.0789 35.9894 47.7212 36.119C47.9949 36.1479 48.2254 35.8742 48.2398 35.6004C48.2398 32.3014 48.3118 29.0024 48.6 25.7034C48.7152 24.3204 48.8593 22.923 49.1186 21.5544C49.5508 19.2639 51.4524 18.3275 52.2591 20.618C53.3396 23.6721 53.037 27.4178 52.9218 30.6015V30.5871Z" fill="var(--color-status-default)"></path>
<path d="M27.6949 24.9563C27.6933 24.893 27.6917 24.8314 27.6917 24.7715V21.1944C27.6917 21.1594 27.6885 21.1261 27.6837 21.0912C27.6083 20.3804 27.0651 19.8677 26.3601 19.8461C26.3424 19.8444 26.3216 19.8444 26.2992 19.8444H26.2399C26.2207 19.8444 26.203 19.8461 26.1822 19.8461H21.9598V15.465C21.9598 15.3002 21.9614 15.1287 21.923 14.949C21.7836 14.3214 21.2516 13.8986 20.601 13.8936C20.202 13.892 19.803 13.892 19.404 13.892C19.005 13.892 18.6076 13.892 18.2086 13.8936H16.8289C16.6703 13.8936 16.502 13.9003 16.3354 13.9569C15.7825 14.1417 15.4252 14.6843 15.4252 15.3368C15.422 15.6597 15.4236 15.9826 15.4236 16.3056C15.4252 16.467 15.4252 16.6285 15.4252 16.79V19.8494H11.1403C11.0137 19.8477 10.8663 19.8511 10.7125 19.8877C10.1084 20.0325 9.69977 20.5835 9.69656 21.2593C9.69176 22.0882 9.69336 22.9305 9.69496 23.7445C9.69496 24.1589 9.69656 24.5751 9.69656 24.9896V25.0828C9.69336 25.2808 9.69176 25.4856 9.75585 25.6903C9.93372 26.2646 10.4561 26.6358 11.0843 26.6358C11.2397 26.6375 11.3951 26.6375 11.5506 26.6375H12.0169C12.1723 26.6375 12.3277 26.6358 12.4832 26.6358H15.4284V31.0169C15.4268 31.1817 15.4268 31.3531 15.4653 31.5329C15.6047 32.1605 16.1351 32.5832 16.7856 32.5882C17.1846 32.5899 17.5836 32.5899 17.9826 32.5899H19.1796C19.5786 32.5882 19.9776 32.5882 20.3766 32.5882H20.5577C20.7164 32.5882 20.8862 32.5816 21.0529 32.525C21.6057 32.3402 21.963 31.7976 21.963 31.1451C21.9646 30.8222 21.9646 30.4992 21.963 30.1763V26.6325H26.3569C26.9802 26.6125 27.4721 26.233 27.6452 25.6404C27.7077 25.424 27.7013 25.176 27.6949 24.9563ZM26.0876 24.9662H21.1634C20.7292 24.9662 20.3606 25.3474 20.3606 25.8002V30.9137H17.0292V25.8035C17.0292 25.3508 16.6623 24.9696 16.2264 24.9696H11.3038V21.509H16.2232C16.659 21.509 17.026 21.1278 17.026 20.675V15.5615H20.3574V20.6717C20.3574 21.1245 20.7244 21.5056 21.1602 21.5056H26.086C26.0876 21.8519 26.0877 22.1981 26.0893 22.5443C26.0909 23.3383 26.0925 24.1573 26.0876 24.9662Z" fill="var(--color-status-default)"></path>
</svg>