<svg xmlns="http://www.w3.org/2000/svg" width="159" height="176" viewBox="0 0 159 176" fill="none" data-inject-url="https://secureclientstorage.s3.amazonaws.com/geometric_1_BayQfNs.svg?X-Amz-Algorithm=AWS4-HMAC-SHA256&amp;X-Amz-Credential=AKIAJMN2KCFC4N5LU6JQ%2F20231106%2Fus-east-2%2Fs3%2Faws4_request&amp;X-Amz-Date=20231106T173817Z&amp;X-Amz-Expires=3600&amp;X-Amz-SignedHeaders=host&amp;X-Amz-Signature=499c1e1f542ebe7be1bb775af35bbb74381b6eb2d6612b96ab77fadce98e451a" id="footer_img" class="img-svginject home__more-bgimg" crossorigin="anonymous">
<path d="M43.4873 157.741L60.5128 147.905C60.8433 147.757 61.1218 147.514 61.3116 147.206L64.4321 141.739L54.4215 135.972L54.7461 136.846L43.4873 157.741Z" fill="var(--color-status-default)"></path>
<path opacity="0.1" d="M43.4873 157.741L60.5128 147.905C60.8433 147.757 61.1218 147.514 61.3116 147.206L64.4321 141.739L54.4215 135.972L54.7461 136.846L43.4873 157.741Z" fill="black"></path>
<path d="M55.9692 136.721L44.1862 157.117C44.0195 157.408 43.7722 157.646 43.4738 157.801C43.1755 157.956 42.839 158.021 42.5043 157.99C42.1697 157.958 41.8512 157.831 41.5872 157.623C41.3232 157.415 41.1248 157.135 41.0158 156.817L28.5088 120.994L55.9692 136.721Z" fill="var(--color-status-default)"></path>
<path opacity="0.2" d="M55.9692 136.721L44.1862 157.117C44.0195 157.408 43.7722 157.646 43.4738 157.801C43.1755 157.956 42.839 158.021 42.5043 157.99C42.1697 157.958 41.8512 157.831 41.5872 157.623C41.3232 157.415 41.1248 157.135 41.0158 156.817L28.5088 120.994L55.9692 136.721Z" fill="white"></path>
<path d="M0.0249884 17.3182C0.174534 14.4632 0.996461 11.684 2.42372 9.2069C3.85098 6.7298 5.84321 4.62491 8.23816 3.06373L10.0356 1.96532C12.5895 0.673235 15.4115 0 18.2737 0C21.1358 0 23.9579 0.673235 26.5118 1.96532L138.55 66.7468C140.948 68.3067 142.944 70.4107 144.376 72.8877C145.807 75.3647 146.634 78.1446 146.788 81.0013V158.664C146.632 161.52 145.805 164.3 144.373 166.776C142.942 169.253 140.947 171.357 138.55 172.919L136.753 173.992C134.203 175.284 131.385 175.957 128.527 175.957C125.669 175.957 122.851 175.284 120.301 173.992L7.4892 108.661C0 104.442 0 100.224 0 94.9811L0.0249884 17.3182Z" fill="var(--color-status-default)"></path>
<path opacity="0.2" d="M0.0249884 17.3182C0.174534 14.4632 0.996461 11.684 2.42372 9.2069C3.85098 6.7298 5.84321 4.62491 8.23816 3.06373L10.0356 1.96532C12.5895 0.673235 15.4115 0 18.2737 0C21.1358 0 23.9579 0.673235 26.5118 1.96532L138.55 66.7468C140.948 68.3067 142.944 70.4107 144.376 72.8877C145.807 75.3647 146.634 78.1446 146.788 81.0013V158.664C146.632 161.52 145.805 164.3 144.373 166.776C142.942 169.253 140.947 171.357 138.55 172.919L136.753 173.992C134.203 175.284 131.385 175.957 128.527 175.957C125.669 175.957 122.851 175.284 120.301 173.992L7.4892 108.661C0 104.442 0 100.224 0 94.9811L0.0249884 17.3182Z" fill="white"></path>
<path d="M146.788 158.664C146.632 161.521 145.805 164.3 144.373 166.776C142.942 169.253 140.947 171.357 138.55 172.919L136.753 173.992C134.446 175.155 131.919 175.819 129.338 175.939C126.757 176.06 124.18 175.634 121.774 174.691C125.644 176.164 128.59 173.942 128.59 169.249V91.5861C128.47 88.7118 127.61 85.9171 126.093 83.4728L144.342 72.8881C145.857 75.3333 146.717 78.1274 146.838 81.0014L146.788 158.664Z" fill="var(--color-status-default)"></path>
<path opacity="0.4" d="M0.274414 14.9716C1.24801 11.4766 4.44341 10.3532 8.23793 12.4752L120.301 77.3815C122.738 78.8942 124.736 81.0205 126.093 83.5476L144.342 72.9879C142.973 70.4688 140.978 68.3452 138.55 66.8218L26.5116 1.96533C23.9586 0.684969 21.142 0.0182495 18.2859 0.0182495C15.4299 0.0182495 12.6132 0.684969 10.0603 1.96533L8.23793 3.06374C6.17205 4.40442 4.40066 6.15153 3.03159 8.1987C1.66252 10.2459 0.724414 12.5503 0.274414 14.9716Z" fill="white"></path>
<path d="M103.027 82.9241C103.003 82.4514 102.866 81.9913 102.627 81.5829C102.388 81.1744 102.054 80.8295 101.654 80.5774L31.6297 40.1358C31.2102 39.915 30.7432 39.7996 30.2691 39.7996C29.795 39.7996 29.3281 39.915 28.9086 40.1358L27.3609 41.0345C26.9412 41.3022 26.5954 41.6712 26.3555 42.1074C26.1156 42.5436 25.9892 43.0331 25.9878 43.5309V97.2035C25.9979 97.6995 26.1281 98.1858 26.3673 98.6205C26.6064 99.0553 26.9473 99.4256 27.3609 99.6999L97.26 140.117C97.684 140.338 98.1549 140.453 98.633 140.453C99.1111 140.453 99.5821 140.338 100.006 140.117L101.529 139.243C101.93 138.985 102.264 138.636 102.502 138.223C102.741 137.811 102.878 137.347 102.902 136.871L103.027 82.9241Z" fill="#EBEBEB"></path>
<path d="M96.6108 85.071L102.627 81.576C102.87 81.9853 103.007 82.4485 103.027 82.924V136.622C103.003 137.098 102.866 137.561 102.627 137.974C102.388 138.386 102.055 138.736 101.654 138.993L100.131 139.867C99.7068 140.088 99.2359 140.203 98.7578 140.203C98.2797 140.203 97.8087 140.088 97.3847 139.867L96.6108 139.443V85.071Z" fill="#E0E0E0"></path>
<path opacity="0.1" d="M96.6108 85.071L102.627 81.576C102.87 81.9853 103.007 82.4485 103.027 82.924V136.622C103.003 137.098 102.866 137.561 102.627 137.974C102.388 138.386 102.055 138.736 101.654 138.993L100.131 139.867C99.7068 140.088 99.2359 140.203 98.7578 140.203C98.2797 140.203 97.8087 140.088 97.3847 139.867L96.6108 139.443V85.071Z" fill="black"></path>
<path d="M26.0127 43.4062V97.0787C26.0165 97.5681 26.1641 98.0456 26.4371 98.4518C26.6357 98.8052 26.9081 99.1118 27.2359 99.3505L97.1351 139.767C97.2814 139.844 97.4442 139.884 97.6094 139.884C97.7746 139.884 97.9373 139.844 98.0837 139.767C98.2286 139.669 98.3445 139.534 98.4192 139.376C98.4939 139.218 98.5246 139.043 98.5081 138.868V85.3956C98.5165 85.204 98.4788 85.0132 98.3981 84.8392C98.3174 84.6651 98.1962 84.513 98.0445 84.3956C97.8929 84.2782 97.7152 84.1989 97.5266 84.1644C97.3379 84.1299 97.1438 84.1412 96.9604 84.1973L67.5028 91.1872L63.6583 92.1109C63.1975 92.2081 62.7186 92.173 62.2768 92.0095C61.8351 91.8461 61.4485 91.561 61.1619 91.1872L56.6935 84.9712L26.7367 43.1066C26.3872 42.3826 26.0127 42.5324 26.0127 43.4062Z" fill="#FAFAFA"></path>
<path opacity="0.2" d="M27.361 99.4502C27.0332 99.2116 26.7607 98.905 26.5621 98.5515C26.3055 98.1469 26.1591 97.6822 26.1377 97.2035L57.118 85.071L36.3729 104.668L27.361 99.4502Z" fill="black"></path>
<path opacity="0.2" d="M98.7582 139.093C98.7747 139.267 98.744 139.443 98.6693 139.601C98.5946 139.759 98.4787 139.894 98.3338 139.992C98.1874 140.068 98.0247 140.108 97.8595 140.108C97.6943 140.108 97.5316 140.068 97.3852 139.992L73.2699 125.987L67.7529 91.2122L98.7582 138.219V139.093Z" fill="black"></path>
<path d="M26.4126 98.5266C26.6112 98.8801 26.8837 99.1866 27.2115 99.4253L97.3353 139.892C97.4817 139.968 97.6444 140.008 97.8096 140.008C97.9748 140.008 98.1375 139.968 98.2839 139.892L64.7822 86.4441C64.11 85.3713 63.074 84.5765 61.8637 84.2051C60.6534 83.8338 59.3499 83.9108 58.1918 84.422L26.4126 98.5266Z" fill="#FAFAFA"></path>
<path opacity="0.2" d="M98.1837 84.1224L66.3297 100.648C65.1781 101.151 63.8842 101.224 62.6837 100.852C61.4833 100.481 60.456 99.6914 59.7891 98.6264L26.3374 42.6322L98.1837 84.1224Z" fill="black"></path>
<path d="M98.1837 84.1224L66.105 96.0302C64.9972 96.4499 63.7792 96.4782 62.653 96.1104C61.5269 95.7426 60.5604 95.0008 59.9139 94.0081L26.3374 42.6322L98.1837 84.1224Z" fill="#FAFAFA"></path>
<path d="M116.657 57.9852L124.82 53.242C128.39 51.2449 133.283 51.5445 138.7 54.665C144.449 58.4117 149.233 63.4612 152.664 69.4037C156.095 75.3461 158.076 82.0139 158.446 88.8656C158.446 95.1566 156.25 99.5752 152.68 101.647L145.191 105.916L143.443 102.995C141.458 102.542 139.548 101.802 137.776 100.798C132.027 97.0463 127.243 91.9921 123.812 86.0457C120.382 80.0992 118.4 73.428 118.03 66.5728C118.035 64.8894 118.244 63.2129 118.654 61.58L116.657 57.9852Z" fill="white"></path>
<path d="M157.797 82.2002C158.287 84.3715 158.538 86.5898 158.546 88.8157C158.546 95.1066 156.349 99.5252 152.779 101.597L145.29 105.866L143.542 102.945C141.557 102.492 139.648 101.752 137.876 100.748C135.949 99.6014 134.142 98.2632 132.483 96.7542L157.797 82.2002Z" fill="white"></path>
<path d="M131.036 59.1086C136.795 62.8482 141.59 67.895 145.03 73.8381C148.47 79.7812 150.458 86.4526 150.832 93.3093C150.832 105.791 141.995 111.009 131.086 104.718C125.337 100.963 120.553 95.9082 117.118 89.9628C113.684 84.0175 111.696 77.3477 111.314 70.4922C111.264 57.9103 120.126 52.7927 131.036 59.1086Z" fill="var(--color-status-hover)"></path>
<path d="M123.222 76.6332V71.7902C123.222 66.2732 126.592 63.7268 130.711 66.1234C132.992 67.7609 134.858 69.91 136.158 72.3984C137.459 74.8868 138.158 77.6453 138.201 80.4527V84.7715C138.286 87.7609 139.146 90.677 140.697 93.2343C141.076 93.916 141.289 94.6769 141.321 95.4561C141.321 96.854 140.472 97.4781 139.424 96.879L121.949 86.8934C121.374 86.4841 120.903 85.9457 120.573 85.3214C120.244 84.6971 120.065 84.0044 120.052 83.2986C120.024 83.0274 120.059 82.7534 120.154 82.498C120.249 82.2425 120.402 82.0125 120.601 81.8257C121.513 81.3286 122.253 80.5656 122.721 79.6381C123.189 78.7106 123.364 77.6625 123.222 76.6332Z" fill="white"></path>
<path d="M127.116 91.2372C127.139 92.5859 127.476 93.9107 128.1 95.1066C128.724 96.3025 129.618 97.3367 130.711 98.1272C132.708 99.2756 134.331 98.1272 134.331 95.4062L127.116 91.2372Z" fill="white"></path>
</svg>