<svg xmlns="http://www.w3.org/2000/svg" width="61" height="41" viewBox="0 0 61 41" fill="none" data-inject-url="https://secureclientstorage.s3.amazonaws.com/charge_off_cUFiRRj.svg?X-Amz-Algorithm=AWS4-HMAC-SHA256&amp;X-Amz-Credential=AKIAJMN2KCFC4N5LU6JQ%2F20231106%2Fus-east-2%2Fs3%2Faws4_request&amp;X-Amz-Date=20231106T173817Z&amp;X-Amz-Expires=3600&amp;X-Amz-SignedHeaders=host&amp;X-Amz-Signature=61ea1e94c99f69b16f8d3078e3413ab00884f099dca78494daaf8de7524ec8ec" id="dispute_charge" class="img-svginject" style="height: 100%" crossorigin="anonymous">
<path d="M59.4448 5.66348C56.8737 6.57844 54.0246 6.70583 51.2913 6.6016C51.9283 4.7601 52.5074 2.90702 52.9822 1.0192C53.0285 0.822308 52.9707 0.671764 52.8548 0.567529C52.7274 0.393803 52.5189 0.301131 52.2873 0.440111C52.2641 0.440111 52.2526 0.45168 52.2294 0.463262C49.2066 2.61746 44.6202 1.88782 41.1689 1.48246C37.7175 1.0771 34.3241 0.301125 30.8611 0C30.8264 0 30.8148 0 30.7801 0C30.7569 0 30.7453 0 30.7221 0C30.6874 0 30.6411 0.0115803 30.6179 0.0347438C30.5832 0.0463255 30.56 0.0695102 30.5368 0.0926736C30.5252 0.104255 30.5021 0.115812 30.4905 0.138975C30.4674 0.17372 30.4442 0.208473 30.421 0.254799C30.421 0.266381 30.421 0.277973 30.4094 0.301136C30.4094 0.3243 30.3863 0.34746 30.3863 0.370624C29.923 3.08075 27.4329 5.82562 25.9157 8.04931C23.831 11.1069 21.5494 14.0139 19.0362 16.724C14.2413 21.8895 9.52757 27.4834 3.38926 31.0969C3.03022 31.3054 3.07656 31.9193 3.50508 32.0119C5.3929 32.4289 7.28072 32.7763 9.14538 33.089C6.33102 35.3011 3.23869 37.0963 0.239025 39.0652C-0.0968453 39.2852 -0.0968382 39.8875 0.354849 39.9801C7.33863 41.312 14.4151 40.6403 21.4799 40.5129C27.6414 40.3971 33.7913 40.6982 39.9412 40.177C40.0338 40.177 40.1149 40.1307 40.1728 40.0959C40.2423 40.0612 40.3118 40.0149 40.3697 39.9338C44.0875 34.5367 47.2145 28.7922 50.3416 23.0476C53.3876 17.4421 55.8892 11.5238 59.9313 6.50892C60.2092 6.16147 59.966 5.48973 59.4448 5.67504V5.66348ZM4.9412 31.2823C10.6626 27.5993 15.0752 22.318 19.7427 17.4305C22.3486 14.6972 24.6302 11.6512 26.7844 8.54732C28.3131 6.34679 30.6063 3.74089 31.2549 1.04235C35.1464 1.42455 38.9915 2.27002 42.8945 2.67538C45.6742 2.96492 49.0676 3.20813 51.7082 1.94572C51.2797 3.53242 50.7817 5.09598 50.2374 6.64794C50.0521 6.76375 49.9825 6.99536 50.0405 7.20384C46.7976 16.1218 41.8406 24.5764 37.4743 32.8689C36.8026 34.1314 37.0573 33.6565 35.3201 33.6565C33.1659 33.6565 31.0117 33.6333 28.8459 33.6333C20.6924 33.6218 12.9094 32.95 4.9528 31.2938L4.9412 31.2823ZM50.5385 20.5576C47.2956 26.9391 43.7284 33.2743 39.6748 39.1926C34.0114 39.6442 28.3132 39.5169 22.6381 39.5053C15.7007 39.4937 8.77477 40.2813 1.88365 39.2042C4.8254 37.3279 7.8135 35.5327 10.512 33.3091C16.5577 34.224 22.5686 34.6294 28.8459 34.6294C31.197 34.6294 33.5597 34.6525 35.9108 34.6641C36.5825 34.6641 37.5206 34.9073 37.8912 34.2124C42.4197 25.6304 47.5967 16.8514 50.9554 7.6092C53.376 7.71344 55.9124 7.65553 58.2751 7.06486C55.1712 11.2459 52.9012 15.9365 50.5385 20.5692V20.5576Z" fill="var(--color-status-default)"></path>
<path d="M21.2931 20.4426C26.6786 20.4774 32.0062 20.9522 37.3453 21.6471C37.9823 21.7282 37.9707 20.7322 37.3453 20.6395C32.0062 19.9446 26.6786 19.4698 21.2931 19.435C20.6445 19.435 20.6445 20.4311 21.2931 20.4311V20.4426Z" fill="var(--color-status-default)"></path>
<path d="M34.3374 26.2203C28.6392 25.2126 22.7904 25.7222 17.1386 24.3672C16.5131 24.2166 16.2467 25.1779 16.8722 25.3284C22.524 26.6835 28.3612 26.1623 34.071 27.1815C34.6964 27.2973 34.9744 26.3361 34.3374 26.2203Z" fill="var(--color-status-default)"></path>
<path d="M38.3978 14.4363C38.4444 14.3777 38.491 14.323 38.5337 14.2605L38.6463 14.077C38.7239 13.9598 38.786 13.8231 38.852 13.6942C38.9646 13.4168 39.0695 13.1082 39.0578 12.7723C39.0578 12.4403 38.9569 12.1044 38.8054 11.827C38.491 11.2724 38.0367 10.9247 37.598 10.6278C36.9535 10.2138 36.2896 9.91303 35.6256 9.63569C35.7615 8.88962 35.9091 8.14744 36.0799 7.40918C36.2041 7.46778 36.3245 7.52636 36.4371 7.59667C36.8525 7.83885 37.1942 8.17088 37.431 8.54977C37.4466 8.56149 37.4854 8.58103 37.497 8.58494C37.7805 8.67478 37.9901 8.65524 38.1144 8.54977C38.2386 8.44821 38.2813 8.26072 38.2813 8.11228C38.2813 8.06932 38.2813 8.05759 38.2658 8.03416C37.928 7.4912 37.4543 7.05372 36.9341 6.74904C36.7322 6.62795 36.5264 6.5264 36.3128 6.43656C36.3944 6.11625 36.4837 5.79986 36.573 5.48346C36.7244 4.96785 36.8875 4.46004 37.0738 3.96005C37.0738 3.93662 37.0661 3.88585 37.0622 3.87413C36.8409 3.24524 36.406 3.40147 36.2003 3.56553C36.1653 3.58897 36.1653 3.59678 36.1537 3.62022C35.9595 4.14364 35.7887 4.67488 35.6334 5.20611C35.5441 5.5147 35.4587 5.82329 35.3772 6.13578C35.1442 6.08109 34.9074 6.03812 34.6705 6.01469C34.7327 5.81157 34.7948 5.60845 34.8647 5.40924C34.954 5.16315 35.0394 4.91705 35.152 4.68268L35.3112 4.32723C35.3694 4.21395 35.4354 4.10068 35.4936 3.9874C35.5014 3.96787 35.4936 3.91708 35.4936 3.90536C35.3694 3.25304 34.9268 3.31946 34.6899 3.46008C34.655 3.4757 34.6472 3.48742 34.6356 3.50695C34.5657 3.63195 34.4958 3.76084 34.4298 3.88584L34.2551 4.27645C34.1309 4.53425 34.0377 4.80379 33.9406 5.06941C33.8319 5.37799 33.7426 5.68658 33.6533 5.99516C33.1913 6.03032 32.7215 6.12406 32.2478 6.40921C32.1119 6.49515 31.976 6.60451 31.8557 6.74513C31.7392 6.88966 31.6383 7.06936 31.5956 7.26857C31.5024 7.6709 31.6188 8.04589 31.7625 8.31541C31.91 8.58494 32.0886 8.81538 32.2789 9.00678C32.3798 9.10444 32.4497 9.19428 32.5895 9.30365C32.7137 9.40521 32.838 9.47943 32.9544 9.54583C32.9583 9.54583 32.9661 9.54975 32.97 9.55365C32.904 10.0654 32.8496 10.5771 32.7953 11.0849L32.7176 11.8661C32.7176 11.8661 32.6904 12.5575 32.6671 13.2332C32.6671 13.3035 32.6633 13.37 32.6594 13.4403C32.6594 13.4403 32.6516 13.4364 32.6477 13.4324C32.6477 13.4324 32.0576 13.1395 31.5179 12.7762C30.9743 12.4208 30.5046 11.9989 30.5356 12.0458C30.1202 11.7138 29.829 11.3974 29.697 11.3661C29.631 11.3505 29.6077 11.413 29.6582 11.5849C29.7086 11.7567 29.8406 12.038 30.1241 12.4051C30.4463 12.8504 30.9161 13.3231 31.316 13.659C31.7159 13.9988 32.042 14.2176 32.042 14.2176C32.1818 14.3035 32.3294 14.3856 32.4769 14.4676C32.5235 14.4949 32.574 14.5223 32.6244 14.5457C32.6205 15.0847 32.6244 15.5261 32.706 15.6316C32.7759 15.7332 32.9156 15.5183 33.1136 14.784C33.3738 14.9051 33.6455 15.0144 33.9173 15.1121C33.8785 15.7761 33.8474 16.4167 33.8668 16.3621C33.8513 17.4753 33.9794 18.2136 34.3988 16.4636C34.4919 16.116 34.5851 15.7136 34.6667 15.3386C35.117 15.448 35.5868 15.5144 36.0721 15.5066C36.6235 15.491 37.2097 15.3543 37.7222 15.034C37.9668 14.8621 38.2037 14.6668 38.3822 14.4324L38.3978 14.4363ZM33.0709 8.40134C32.9933 8.32321 32.9156 8.2451 32.8535 8.16307C32.8224 8.124 32.7836 8.08494 32.7564 8.04198L32.6788 7.92089C32.5856 7.76464 32.539 7.6123 32.5545 7.52636C32.5662 7.44433 32.6128 7.36622 32.7409 7.26857C32.869 7.17873 33.0515 7.10058 33.2495 7.05371C33.3 7.04199 33.3544 7.0342 33.4048 7.02248C33.3 7.50293 33.2107 7.98337 33.133 8.46773C33.1097 8.4443 33.0865 8.41696 33.0632 8.39743L33.0709 8.40134ZM34.1231 12.9325L34.0183 13.7137C34.0183 13.7137 34.0066 13.866 33.995 14.0965C33.9134 14.0652 33.828 14.0301 33.7465 13.9949C33.6417 13.952 33.5368 13.9012 33.432 13.8543L33.3621 13.8192C33.4242 13.5262 33.4825 13.2293 33.5329 12.9715C33.6222 12.4676 33.6882 12.1005 33.6882 12.1005L33.7775 11.1942C33.8203 10.7958 33.8668 10.3974 33.9134 9.99896C34.0571 10.0615 34.2046 10.12 34.3483 10.1786C34.4065 10.2021 34.4686 10.2255 34.5269 10.2528C34.3793 11.1474 34.2435 12.0419 34.1231 12.9325ZM34.0493 8.98335C34.1464 8.30758 34.2706 7.63964 34.4221 6.9834C34.6667 7.00293 34.9112 7.0381 35.1481 7.09279C34.9811 7.81152 34.8336 8.53415 34.7016 9.25678C34.4803 9.16694 34.259 9.07709 34.0493 8.98335ZM37.3844 14.0809C37.0894 14.3191 36.7244 14.4637 36.3128 14.5105C35.8547 14.5574 35.3694 14.5027 34.8841 14.3816C34.9345 14.1277 34.9656 13.9676 34.9656 13.9676L35.086 13.0653C35.1986 12.2528 35.3189 11.4442 35.4509 10.6357C35.9595 10.8544 36.4526 11.0849 36.9069 11.3583C37.2874 11.5927 37.6407 11.8622 37.8581 12.1669C38.0716 12.4754 38.1299 12.7723 38.0212 13.1161L37.9746 13.245C37.9591 13.2879 37.9319 13.3348 37.9086 13.3778C37.8698 13.4676 37.8115 13.5535 37.7572 13.6434C37.6484 13.8152 37.5203 13.9559 37.3767 14.0809H37.3844Z" fill="var(--color-status-default)"></path>
</svg>