<svg xmlns="http://www.w3.org/2000/svg" width="56" height="45" viewBox="0 0 56 45" fill="none" data-inject-url="https://secureclientstorage.s3.amazonaws.com/collection_CqPfovN.svg?X-Amz-Algorithm=AWS4-HMAC-SHA256&amp;X-Amz-Credential=AKIAJMN2KCFC4N5LU6JQ%2F20231106%2Fus-east-2%2Fs3%2Faws4_request&amp;X-Amz-Date=20231106T173817Z&amp;X-Amz-Expires=3600&amp;X-Amz-SignedHeaders=host&amp;X-Amz-Signature=e7c2f119705b4b51443af2fc5e94971d3acc61c0aabbebf148d3b4a1e6e06869" id="dispute_coll" class="img-svginject" style="height: 100%" crossorigin="anonymous">
<path fill-rule="evenodd" clip-rule="evenodd" d="M55.8924 3.92765C55.7257 4.68727 55.6424 5.43765 55.6794 6.27138C56.1517 17.851 55.6238 30.5701 55.8183 42.5296C54.4941 42.7612 53.1885 43.4745 51.9847 44.16C51.6513 44.3545 51.0308 44.7343 50.7808 44.7251C50.2067 44.7065 49.6048 43.7617 49.1511 43.4467C48.1973 42.7982 46.9472 42.2239 45.8175 41.7421V8.75405C45.8175 7.19775 45.5119 5.19678 45.8175 4.06661C46.0027 3.39962 47.3546 2.76969 48.2343 2.36209C49.4937 1.76921 49.9289 1.22265 50.7901 0.79652C51.5124 0.444499 51.7994 1.30602 52.4198 1.72289C53.5403 2.45473 55.0497 3.18655 55.8924 3.92765ZM50.9938 1.23192C49.7993 2.40841 47.9195 2.89011 46.6694 4.00176C47.8546 5.10414 49.2992 5.9564 50.5678 6.98468C51.892 5.87303 53.7348 5.28016 54.8275 3.93692C53.744 2.85306 52.0402 2.37135 50.9938 1.24117V1.23192ZM50.9938 7.47565C52.2532 6.98468 53.0403 6.02125 54.2533 5.49322C54.3182 5.62291 54.4478 5.66923 54.3922 5.91935C54.2996 6.22506 54.0404 6.04904 53.8274 6.13242C53.4107 6.5956 52.7995 6.83647 52.2624 7.19775C51.7809 7.52198 51.0494 7.82768 50.9105 8.47614C52.1235 7.60535 53.4662 6.86426 54.7349 6.06758C54.8552 6.06758 54.9571 6.08609 55.0219 6.14167C54.9664 5.51174 55.1979 5.17826 55.1608 4.57612C53.8552 5.63218 52.1513 6.29917 50.9753 7.48493L50.9938 7.47565ZM46.4564 41.3901C47.475 41.807 48.4658 42.2795 49.29 42.8075C49.7252 43.0854 50.0771 43.7246 50.4197 43.6597V18.0456C50.4197 15.1645 50.6605 12.1909 50.4197 9.39325C50.3919 9.03196 50.4012 8.59656 50.0678 8.40202C50.1789 8.10559 50.466 7.99442 50.3549 7.47565C49.0122 6.57707 47.7806 5.55806 46.4564 4.64096V41.3901ZM53.4014 42.7334C54.0774 42.5388 54.5682 42.1497 55.2442 41.9552V36.9899C54.7071 37.3789 54.1052 37.7217 53.4755 38.0552C52.8921 38.3609 52.318 38.9538 51.6328 38.9074C52.5217 37.8514 54.2719 37.3048 55.2534 36.5637V32.2376C54.5219 32.4877 53.92 32.9601 53.2718 33.377C52.6236 33.7846 51.9291 34.2571 51.3549 34.4423C51.5494 33.7198 52.3365 33.377 52.9199 33.025C53.5403 32.6452 54.2256 32.3117 54.8367 31.9597C54.9479 31.7281 55.3275 32.1079 55.2627 31.8207V29.477C54.3459 30.1347 53.2718 30.7739 52.355 31.3946C52.068 31.5891 51.7809 32.0616 51.3642 31.8856C51.6142 31.2278 52.3736 30.8943 52.9292 30.5423C53.7255 30.0235 54.42 29.4029 55.272 29.0509V18.2679C54.6978 18.4717 54.2256 18.9534 53.707 19.3332C53.2347 19.6852 52.6514 20.2133 52.0772 20.0465C52.4847 19.5555 53.0588 19.2128 53.5681 18.8422C54.0774 18.4717 54.633 18.0548 55.272 17.851V16.2855C54.2811 16.9895 53.0773 17.6194 52.1513 18.342C51.855 18.5736 51.6142 19.0924 51.1605 18.9812C51.3735 18.1567 52.2347 17.8232 52.8643 17.4249C53.5311 16.9988 54.1422 16.4892 54.7812 16.0724C54.9108 15.8501 55.2905 16.0909 55.2812 15.8593C55.1331 12.7467 55.6053 9.00417 54.9942 6.35475C53.7533 7.3367 52.1513 7.95738 51.0216 9.0505C51.1327 10.0695 51.0771 11.2645 51.0957 12.3854C51.8643 12.1538 52.4662 11.6165 53.0773 11.1811C53.6978 10.7365 54.2811 10.1807 54.9942 10.0417C54.6608 10.7457 53.9015 11.1719 53.2903 11.598C52.6699 12.0427 51.9569 12.58 51.0957 12.7375C51.142 13.3303 51.0031 14.1085 51.1698 14.5809C51.6513 14.0344 52.3458 13.6268 52.9477 13.1636C53.5311 12.7097 54.1145 12.0705 54.9293 12.0983C54.5404 12.756 53.7348 13.0061 53.1514 13.4508C52.5495 13.9139 52.0032 14.3957 51.4476 14.8681C51.2161 14.9885 51.1049 14.5254 51.0957 14.8681C51.142 15.0812 51.0031 15.4795 51.1698 15.5814C51.7717 15.0904 52.5217 14.7755 53.1514 14.303C53.7718 13.8398 54.2534 13.1265 54.9942 13.0246C54.6515 13.7472 53.9107 14.266 53.2903 14.7291C52.6236 15.2294 51.818 15.5907 51.0957 16.0075V21.2601C51.7716 20.908 52.4199 20.4541 53.0773 20.0558C53.7348 19.6482 54.383 19.0646 55.1331 18.9905C54.4015 19.9909 53.0496 20.5375 52.0124 21.186C51.6791 21.399 51.1512 21.575 51.0864 22.0382C52.1513 21.6584 53.1977 20.2689 54.4941 20.1206C53.8089 20.9636 52.6606 21.5102 51.7994 22.1031C51.5124 22.2976 50.9846 22.5385 51.0864 23.0294C52.2347 22.5848 53.3551 21.1304 54.7071 20.8988C54.4015 21.6028 53.5774 21.8437 53.0032 22.2513C52.4013 22.6682 51.855 23.2796 51.0864 23.4556C51.1327 24.3264 50.9938 25.3917 51.1605 26.1513C51.7068 25.7252 52.3088 25.1971 52.9384 24.734C53.5033 24.3171 54.1515 23.576 54.8552 23.7427C53.6885 24.7525 52.531 25.7622 51.0957 26.5126V27.791C51.6142 27.4575 52.2161 27.0221 52.8643 26.5867C53.4662 26.1791 54.0033 25.4658 54.7071 25.4473C53.8459 26.6793 52.2069 27.4853 51.0864 28.2171V32.6915C51.6513 32.2839 52.4384 31.9411 53.1422 31.4872C53.8552 31.0333 54.3645 30.2181 55.1238 30.144C54.4385 31.5335 52.818 31.9967 51.6513 32.9138C52.4939 32.6544 53.2718 31.6169 54.133 31.8485C53.4014 32.5896 52.318 32.9601 51.4383 33.553C51.3549 33.2195 51.4383 33.0991 51.0864 32.9879V42.5666C51.9383 41.9459 53.1236 41.5847 53.9941 41.001C54.3089 40.7972 54.4756 40.2878 54.9201 40.436C54.2626 42.0015 51.9939 41.9552 51.0864 43.2707C52.3828 43.002 53.6978 41.7699 54.9849 41.5013C54.809 42.2239 53.6237 42.3165 53.4199 42.7797L53.4014 42.7334ZM51.0586 43.8728C51.2994 43.8728 52.1328 43.4837 52.1235 43.2336C51.8643 43.5393 51.2346 43.4837 51.0586 43.8728Z" fill="var(--color-status-default)"></path>
<path fill-rule="evenodd" clip-rule="evenodd" d="M54.7538 7.33655C54.4852 7.94796 53.6889 8.21661 53.124 8.54084C52.5406 8.88359 51.9572 9.43015 51.2812 9.3931C52.0221 8.38335 53.5037 8.1147 54.4019 7.26244C54.5686 7.24391 54.6704 7.27171 54.7538 7.33655Z" fill="var(--color-status-default)"></path>
<path fill-rule="evenodd" clip-rule="evenodd" d="M44.1873 11.1628C44.141 11.9502 43.9002 13.173 43.9743 14.2847C43.9928 14.6459 44.1502 14.9516 44.1873 15.2759C44.4188 17.3509 44.1873 19.7317 44.1873 22.0106V42.2333C43.1779 42.8447 41.6778 43.206 40.5666 43.6507C40.0758 43.8452 39.298 44.5029 38.7979 44.5029C38.3071 44.5029 36.9089 43.4654 36.4551 43.2245C35.5847 42.7613 34.8902 42.3722 34.0475 42.0202V15.2018C34.0475 13.9141 33.7604 12.4875 34.0475 11.5797C34.2883 10.82 35.7236 9.97703 36.3162 9.59722C36.7515 9.31931 37.2052 9.0414 37.6682 8.81907C38.1868 8.56895 38.7424 8.45778 39.1591 8.17987C39.6869 7.81859 39.835 8.48558 40.298 8.74496C40.6407 8.9395 41.0481 9.00434 41.437 9.24519C42.3445 9.79175 43.5576 10.3383 44.2058 11.1628H44.1873ZM39.298 8.75422C37.5663 9.56016 35.8717 10.3846 34.6865 11.7371C35.3532 12.2744 36.0199 12.7191 36.8163 13.1545C37.4367 13.4972 38.0756 14.2939 38.659 14.2939C39.3998 14.2939 40.437 13.2471 41.0666 12.8025C41.9371 12.2003 42.7057 11.7464 43.4094 11.172C42.1501 10.2549 40.6407 9.58795 39.298 8.76348V8.75422ZM41.0666 21.8068C41.6315 21.4548 42.1871 20.7415 42.8353 20.9545C41.8815 21.9921 40.474 22.5664 39.2146 23.2983C39.1683 23.5577 39.1128 23.817 39.1405 24.1505C39.798 23.7059 40.5388 23.3631 41.2704 22.9462C41.9649 22.5479 42.5945 21.8624 43.4002 21.8161C42.363 23.1871 40.3258 23.5669 39.1405 24.799V25.2251C40.5481 24.2895 42.0667 23.465 43.5391 22.6035C43.6131 18.9351 43.4279 15.3778 43.465 11.9595C43.1038 12.1447 42.5297 12.4875 42.539 12.8117C42.576 12.6079 43.1038 12.469 43.1779 12.7376C42.3908 13.3861 41.5111 14.2569 40.6962 14.8683C40.4647 15.0443 40.0758 15.4426 39.7702 15.2203C40.3907 14.2569 41.5574 13.84 42.2519 12.9507C40.9648 13.3212 40.2518 14.2661 39.1313 14.7942C39.085 15.9336 39.2054 16.897 39.2054 17.9901C39.8258 17.7215 40.4925 17.1564 41.187 16.6376C41.8445 16.1559 42.6038 15.4612 43.3817 15.5723C42.2241 16.5821 40.7425 17.2861 39.6221 18.3422H39.1961V18.9073C39.9184 18.5923 40.511 17.9901 41.1778 17.564C41.863 17.1286 42.576 16.6099 43.3724 16.4987C42.9372 17.2768 41.9741 17.527 41.2426 17.9901C40.5018 18.4626 39.8073 19.0555 39.1868 19.6206C39.2146 20.1949 39.1591 20.6766 39.1128 21.1861C40.261 20.6396 41.3259 19.9355 42.3075 19.2685C42.6223 19.0555 42.9279 18.6015 43.3724 18.7683C42.289 20.1208 40.4647 20.7322 39.1128 21.8161V22.8073C39.761 22.5386 40.4184 22.1866 41.0296 21.8161L41.0666 21.8068ZM34.6124 41.6034C36.0384 42.187 37.2052 43.03 38.585 43.6599C38.5479 33.97 38.6405 24.3358 38.585 14.998C37.1404 14.2476 35.8717 13.3212 34.5383 12.4412C34.6957 22.0291 34.5661 31.9042 34.6124 41.6034ZM39.1498 25.855C39.1961 26.4942 39.0572 27.3187 39.2239 27.8375C40.011 27.013 41.2796 26.3182 42.2704 25.7068C42.576 25.5215 43.0668 25.0769 43.4002 25.3548C42.2704 26.5035 40.5666 27.0593 39.3535 28.1247C39.2146 28.1617 39.1683 27.7078 39.1405 28.0505V28.4026C39.7795 28.032 40.5203 27.68 41.1963 27.2631C41.8167 26.8833 42.4464 26.1515 43.1779 26.3368C42.3353 27.1798 40.9648 27.7912 39.9184 28.3933C39.6128 28.5693 38.9183 28.875 39.2054 29.3845C39.7147 29.0881 40.2888 28.7916 40.8351 28.4581C41.3352 28.1524 41.8815 27.5688 42.4649 27.8189C42.0019 28.2821 41.3907 28.6527 40.761 29.0232C40.1962 29.3475 39.1961 29.4586 39.1313 30.3016C39.798 30.1164 40.4184 29.718 41.0481 29.3753C41.6593 29.051 42.3353 28.5415 42.9649 28.6619C42.4927 29.2178 41.6963 29.5513 40.9833 29.9403C40.3166 30.2924 39.1868 30.3943 39.1405 31.3577C40.4277 31.1539 41.4 29.7365 42.5483 29.8662C41.863 30.561 40.7888 31.0798 39.9276 31.4966C39.6776 31.6171 39.122 31.7282 39.1498 32.1358C40.5758 31.8116 42.0204 30.5147 43.5483 30.2924C43.502 27.9023 43.6409 25.327 43.4743 23.0574C42.0667 24.0116 40.3629 24.6693 39.1498 25.8272V25.855ZM40.0017 32.3118C39.6591 32.4786 38.9831 32.599 39.1498 33.1641C39.7795 32.9047 40.4555 32.5435 41.1315 32.2377C41.7704 31.9598 42.5112 31.4596 43.1872 31.6726C42.7983 32.1266 42.113 32.2748 41.5574 32.5249C40.9555 32.7936 40.3629 33.0715 39.7795 33.3031C39.8258 33.8311 39.1683 33.6366 39.1405 34.0812C39.761 33.933 40.437 33.5161 41.1222 33.1548C41.7889 32.8121 42.4834 32.2563 43.1038 32.3767C42.0945 33.4513 40.4092 33.8404 39.1313 34.6463V36.2119C39.7147 35.8877 40.3814 35.5449 41.0481 35.2207C41.687 34.9057 42.3723 34.3313 43.0298 34.5073C42.5575 35.0261 41.8352 35.3226 41.187 35.6468C40.5203 35.9803 39.8443 36.3323 39.1313 36.5732C39.1776 38.3981 39.0387 40.3991 39.2054 42.1036C39.7517 41.6682 40.511 41.3996 41.187 41.0383C41.8352 40.6955 42.5575 40.0563 43.3168 40.325C42.8168 40.7881 42.0945 41.0105 41.4741 41.3162C40.8444 41.6311 40.1962 41.9369 39.6313 42.3074C39.5387 42.4093 39.3258 42.3815 39.1313 42.3815C39.2054 42.7891 38.9739 43.4839 39.2702 43.6599C39.6221 43.5395 39.4091 43.243 39.6961 43.0207C39.9276 42.9651 40.1962 42.9096 40.4092 42.8077C41.4648 42.3074 42.2797 41.3903 43.3168 41.1772C43.0205 42.048 41.9648 42.1407 41.4 42.7428C42.2241 42.576 42.7983 42.1592 43.5298 41.8905V33.5161C42.576 34.1276 41.2518 34.461 40.2703 35.0076C39.9832 35.1651 39.798 35.5727 39.4184 35.4337C39.3628 35.0261 39.7332 34.8779 39.9832 34.7204C41.0388 34.0905 42.5112 33.7199 43.5298 33.0159C43.4835 32.21 43.6224 31.2187 43.4557 30.5332C42.4464 31.1817 41.0666 31.7931 39.9832 32.3118H40.0017Z" fill="var(--color-status-default)"></path>
<path fill-rule="evenodd" clip-rule="evenodd" d="M55.1819 8.18892C54.8393 8.90222 53.904 9.11529 53.2003 9.46731C52.478 9.8286 51.8298 10.3566 51.1445 10.4585C51.3946 9.73595 52.2742 9.49511 52.9224 9.18014C53.6169 8.83738 54.3115 8.50388 54.9041 8.1148C55.0523 8.08701 55.0893 8.16112 55.1912 8.18892H55.1819Z" fill="var(--color-status-default)"></path>
<path fill-rule="evenodd" clip-rule="evenodd" d="M54.9667 8.96725C54.9297 9.63424 53.9204 10.0233 53.337 10.4587C52.7443 10.9034 52.0776 11.6445 51.2812 11.524C51.2998 11.0979 51.7442 11.1072 51.9943 10.959C52.948 10.3753 53.7722 9.53235 54.763 8.97653H54.976L54.9667 8.96725Z" fill="var(--color-status-default)"></path>
<path fill-rule="evenodd" clip-rule="evenodd" d="M55.1168 10.9496C54.7464 11.5425 54.0241 11.9409 53.4129 12.367C52.8388 12.7653 52.1999 13.3304 51.4961 13.3582C51.7924 12.6912 52.5703 12.4596 53.1259 12.0798C53.6907 11.6907 54.2 11.2368 54.7556 10.8755C54.9223 10.857 55.0242 10.8848 55.1075 10.9496H55.1168Z" fill="var(--color-status-default)"></path>
<path fill-rule="evenodd" clip-rule="evenodd" d="M43.2711 13.4325C42.1785 14.6831 40.6413 15.4798 39.3726 16.5544C39.2986 15.7206 40.419 15.2852 41.0024 14.8499C41.6691 14.3496 42.3081 13.8031 42.9193 13.3584C43.0859 13.3306 43.1878 13.3677 43.2711 13.4325Z" fill="var(--color-status-default)"></path>
<path fill-rule="evenodd" clip-rule="evenodd" d="M54.8278 14.2193C54.5223 14.8863 53.7074 15.2013 53.124 15.6367C52.5684 16.0628 52.0035 16.7205 51.2812 16.702C52.1332 15.6089 53.4666 15.0068 54.5408 14.1452C54.6889 14.1174 54.726 14.1915 54.8278 14.2193Z" fill="var(--color-status-default)"></path>
<path fill-rule="evenodd" clip-rule="evenodd" d="M43.338 14.7848C42.7176 15.3128 41.9953 15.6371 41.3564 16.128C40.7544 16.5912 40.1803 17.1656 39.4395 17.4805C39.4303 16.7765 40.4581 16.3318 41.0045 15.9242C41.6249 15.4425 42.2638 14.9701 42.9213 14.6458C43.1065 14.6458 43.338 14.6088 43.3473 14.7848H43.338Z" fill="var(--color-status-default)"></path>
<path fill-rule="evenodd" clip-rule="evenodd" d="M55.1168 14.8588C54.8019 15.5072 54.0148 15.8778 53.4129 16.2761C52.8203 16.6652 52.2184 17.2859 51.4961 17.2673C52.3665 16.202 53.7926 15.6832 54.8297 14.7847C54.9779 14.7569 55.0149 14.831 55.1168 14.8588Z" fill="var(--color-status-default)"></path>
<path fill-rule="evenodd" clip-rule="evenodd" d="M55.0406 17.342C54.6609 17.9441 53.9479 18.398 53.3368 18.8334C52.7441 19.2595 52.1052 19.7968 51.4199 19.8987C51.5496 19.3151 52.4293 18.9446 52.9849 18.5462C53.5868 18.1201 54.1794 17.6847 54.6887 17.2678C54.8554 17.2493 54.9573 17.2771 55.0406 17.342Z" fill="var(--color-status-default)"></path>
<path fill-rule="evenodd" clip-rule="evenodd" d="M43.338 17.7675C43.1528 18.3233 42.5602 18.453 42.1343 18.7587C41.2453 19.3979 40.5693 20.4354 39.5137 20.6022C39.8656 19.8796 40.6619 19.5276 41.2175 19.0366C41.8009 18.5179 42.3658 18.0454 43.0603 17.6841C43.2084 17.6563 43.2455 17.7304 43.3473 17.7582L43.338 17.7675Z" fill="var(--color-status-default)"></path>
<path fill-rule="evenodd" clip-rule="evenodd" d="M39.2246 22.5201C39.5395 21.8624 40.3266 21.5103 40.9285 21.1027C41.5026 20.7137 42.1137 20.0745 42.8453 20.1115C42.0026 21.1769 40.5303 21.6308 39.5858 22.5942C39.4191 22.6127 39.3172 22.5849 39.2339 22.5201H39.2246Z" fill="var(--color-status-default)"></path>
<path fill-rule="evenodd" clip-rule="evenodd" d="M14.973 21.306C15.6675 21.7043 16.6305 22.2787 17.3806 22.7233C18.1955 23.205 19.0474 23.5293 19.7975 24.0758C20.0753 29.8471 19.9364 36.4151 19.8715 42.3068C18.9548 42.3161 18.0751 42.8719 17.1028 43.5852C16.5657 43.9743 15.8712 44.8266 15.3341 44.8636C14.6026 44.9192 13.7507 43.965 13.2043 43.5111C12.482 42.909 11.7968 42.5847 11.2227 42.0197C11.4727 36.341 11.0652 29.5044 11.4356 24.0666C12.6209 23.1495 14.0192 22.4454 14.9822 21.2967L14.973 21.306ZM14.973 22.0841C14.2785 23.0661 13.0654 23.5385 12.1394 24.2796C13.4821 24.9188 14.1581 26.2343 15.7601 26.6234C16.825 25.7896 18.2047 25.2801 19.0937 24.2796C17.5936 23.6775 16.4638 22.6955 14.9822 22.0841H14.973ZM11.8523 24.9188V41.7325C13.0098 42.5199 13.9544 43.5111 15.186 44.2152V27.1884C13.9266 26.6233 13.0284 25.3264 11.8523 24.9188ZM16.1027 28.2538C16.4546 27.9851 16.8806 27.6423 17.3065 27.3274C17.6862 27.0495 18.1955 26.5122 18.6585 26.7623C17.8714 27.7257 16.5379 28.1333 15.8249 29.1709C16.8898 28.9763 18.0751 27.3644 19.2326 27.5405C18.2788 28.578 16.575 28.8559 15.8249 30.0973C16.3064 29.9954 16.8157 29.5507 17.3806 29.245C17.9454 28.9485 18.5659 28.4483 19.0844 28.6058C18.2603 29.5877 16.7416 29.8564 15.8249 30.7365C15.8619 30.8569 15.7416 31.1533 15.899 31.1626C16.3435 30.8661 16.862 30.4956 17.3899 30.1714C17.8714 29.8749 18.4548 29.3747 18.9548 29.5322C18.6029 30.0972 17.9084 30.3752 17.325 30.7365C16.7602 31.0792 15.9546 31.3201 15.8342 32.0889C16.8343 31.811 17.7695 30.5975 18.6677 30.7365C18.3436 31.1904 17.7602 31.5331 17.1769 31.8666C16.6953 32.1538 15.686 32.302 15.899 33.0709C16.9639 32.3576 18.0936 31.7184 19.3067 31.1533C19.2604 29.1709 19.3993 26.9939 19.2326 25.1226C18.1214 25.8545 16.9361 26.5122 15.8249 27.2533V27.7535C16.7046 27.42 17.6677 25.8267 18.8715 26.049C18.0195 26.8086 16.6583 27.4386 16.1027 28.2445V28.2538ZM19.1493 31.5887C18.1307 32.2835 16.7694 32.9783 15.8156 33.5063C15.8619 34.5253 15.723 35.7296 15.8897 36.6282C16.3898 36.2576 16.9732 35.8685 17.5936 35.5628C18.214 35.2571 19.0474 35.1367 19.2974 34.4234C18.3529 34.5901 17.4454 35.7852 16.3898 35.8407C17.0287 34.8217 18.4362 34.5809 19.2974 33.7842C19.2048 33.0894 19.4826 32.0426 19.1585 31.5795L19.1493 31.5887ZM16.1675 42.733C16.186 42.0474 17.075 41.8159 17.5843 41.5287C18.1121 41.223 18.714 40.6393 19.2141 40.8154C19.177 41.2044 18.7603 41.2137 18.5751 41.4546C18.9178 41.3434 18.7881 41.7139 18.927 41.8066C19.4734 41.6584 19.2789 40.9265 19.2789 40.4541V35.2015C18.6863 35.498 18.0658 35.8685 17.4361 36.1928C16.862 36.4892 15.8897 36.7115 15.8064 37.4712C16.2601 37.221 16.7694 36.9709 17.2232 36.693C17.6862 36.4151 18.0566 35.8963 18.5659 35.9149C18.0658 36.9987 16.8065 37.3229 15.7971 37.9066C15.8434 39.8427 15.7045 41.9733 15.8712 43.7983C16.0009 43.6223 16.2879 43.5945 16.3712 43.3721C16.0934 43.4648 16.1583 43.2054 16.1583 43.0201C17.038 42.7144 17.9455 42.066 18.3529 41.5287C17.5936 41.9085 17.0009 42.4458 16.1583 42.733H16.1675Z" fill="var(--color-status-default)"></path>
<path fill-rule="evenodd" clip-rule="evenodd" d="M55.1149 21.7324C54.7168 22.2975 54.013 22.6681 53.4111 23.0849C52.8462 23.4648 52.2536 24.0576 51.5684 24.0762C52.3555 23.0016 53.6982 22.4735 54.7631 21.6676C54.9298 21.6491 55.0316 21.6768 55.1149 21.7417V21.7324Z" fill="var(--color-status-default)"></path>
<path fill-rule="evenodd" clip-rule="evenodd" d="M55.041 22.7333C54.6428 23.3354 53.8927 23.7245 53.2723 24.1506C52.6611 24.5675 52.0129 25.0863 51.3555 25.2159C51.587 24.4748 52.4204 24.2618 52.9852 23.8635C53.5594 23.4651 54.1057 23.0112 54.6891 22.6592C54.8558 22.6314 54.9576 22.6684 55.041 22.7333Z" fill="var(--color-status-default)"></path>
<path fill-rule="evenodd" clip-rule="evenodd" d="M43.4121 24.15C42.9677 24.7522 42.1435 25.1691 41.4953 25.6415C41.1805 25.8731 40.8193 26.1325 40.5045 26.3548C40.2452 26.5308 39.8378 26.9662 39.5137 26.7068C39.8748 26.0213 40.6897 25.7897 41.2916 25.3543C41.8842 24.9282 42.3935 24.3817 43.0695 24.0759C43.2362 24.0574 43.3381 24.0852 43.4214 24.15H43.4121Z" fill="var(--color-status-default)"></path>
<path fill-rule="evenodd" clip-rule="evenodd" d="M54.6893 24.6505C54.3189 25.2341 53.6522 25.7065 53.0595 26.1419C52.4854 26.5588 51.8743 27.1054 51.2168 27.2073C51.3742 26.5866 52.1428 26.2809 52.7077 25.8547C53.2725 25.4379 53.8466 24.984 54.3374 24.5764C54.5041 24.5486 54.606 24.5856 54.6893 24.6505Z" fill="var(--color-status-default)"></path>
<path fill-rule="evenodd" clip-rule="evenodd" d="M54.9665 26.2806C54.272 27.1792 53.17 27.8925 52.1977 28.6243C51.8921 28.8559 51.5495 29.2635 51.1328 29.1245C52.0588 27.9202 53.5312 27.2625 54.6053 26.2157C54.772 26.1972 54.8739 26.225 54.9572 26.2898L54.9665 26.2806Z" fill="var(--color-status-default)"></path>
<path fill-rule="evenodd" clip-rule="evenodd" d="M54.7538 27.2721C54.6797 28.0132 53.763 28.3189 53.1981 28.7636C52.6054 29.2268 52.0221 29.8567 51.2812 30.042C51.5035 29.2916 52.2998 28.9766 52.8369 28.5505C53.4111 28.0966 53.9944 27.7075 54.5408 27.2721H54.7538Z" fill="var(--color-status-default)"></path>
<path fill-rule="evenodd" clip-rule="evenodd" d="M54.8276 28.4026C54.8739 29.1623 53.9201 29.4958 53.3368 29.8941C52.7534 30.2925 52.1144 30.9409 51.4199 30.8853C52.2533 29.82 53.7627 29.4494 54.6147 28.4026H54.8276Z" fill="var(--color-status-default)"></path>
<path fill-rule="evenodd" clip-rule="evenodd" d="M8.65815 30.5334C8.49147 34.3408 8.63036 38.4538 8.58406 42.3817C7.34321 43.0764 6.28758 43.9565 5.03747 44.6513C2.991 44.2344 1.64829 43.1228 0 42.3076C0.157421 38.7503 0.0277677 34.9058 0.074068 31.2374C1.55568 30.7001 2.65763 29.4125 3.75958 28.6158C3.84292 28.5509 3.87996 28.4768 4.04664 28.4768C5.70419 28.4861 7.23211 29.9035 8.65815 30.5334ZM4.18553 29.0419C3.14841 29.6996 2.41687 30.6723 1.35196 31.3115C2.58355 31.6636 3.70401 32.1267 4.82448 32.5899C5.94494 32.1082 6.908 31.4505 7.73215 30.6723C6.55612 30.1258 5.60232 29.3476 4.18553 29.0419ZM7.80622 31.4505C7.14875 32.0063 6.35239 32.4695 5.61159 32.8678C5.37083 32.9975 4.88004 33.0994 4.97264 33.507C5.76901 33.3773 6.63947 31.9692 7.59325 32.2286C6.93579 33.0624 5.42639 33.4237 5.03747 34.2852C5.87087 33.9054 6.65797 32.7474 7.65805 33.0068C7.31543 33.4422 6.71353 33.6089 6.24127 33.9332C5.78752 34.2389 5.15784 34.5168 4.96337 35.0726C5.78752 34.9059 6.83393 33.5904 7.79698 33.7942C7.04691 34.6094 5.82456 34.9429 4.96337 35.6377V36.9809C5.98198 36.351 6.94503 35.6562 8.00994 35.0633V31.4412H7.79698L7.80622 31.4505ZM0.78711 31.8766C0.69451 31.9044 0.638955 31.9693 0.648215 32.0897V42.0204C1.94462 42.5947 3.00027 43.4007 4.40779 43.8639C4.38001 40.0843 4.40779 37.0365 4.40779 33.1457C3.38919 32.5343 2.2039 32.0897 0.78711 31.8674V31.8766ZM7.52843 39.5377C7.74141 40.2047 6.92652 40.39 6.53759 40.6771C6.06533 41.0106 5.64862 41.4182 5.2597 41.7425C5.0745 41.8258 4.95412 41.5201 4.97264 41.8166V43.095C6.08385 42.6688 6.76911 41.446 7.88031 41.2515C7.22285 42.3631 5.94495 42.8634 4.97264 43.6601C5.00968 43.762 4.88932 44.0306 5.04674 44.0121C5.8894 43.2617 6.9543 42.465 7.95438 42.0945C8.12106 40.0565 7.98218 37.722 8.02848 35.5636C6.97283 36.2306 5.77828 36.7678 4.98191 37.6942C5.89866 37.3978 6.65799 36.212 7.5377 36.3417C7.27841 36.8327 6.72281 37.1013 6.2598 37.407C5.78754 37.7127 5.10229 37.9073 4.98191 38.5465C5.83384 38.2871 6.69502 37.0458 7.67659 36.9161C7.31545 38.1018 4.98191 38.3427 4.98191 39.7508C5.95422 39.2042 6.69501 37.9536 7.75066 37.7591C7.56546 38.4261 6.8617 38.7318 6.3987 39.1116C5.8894 39.5284 5.47269 39.9916 4.98191 40.39C5.02821 40.7235 4.8893 41.2422 5.05598 41.4553C5.7227 40.6586 6.66725 40.1399 7.5377 39.5377H7.52843Z" fill="var(--color-status-default)"></path>
<path fill-rule="evenodd" clip-rule="evenodd" d="M30.7917 28.9027C29.986 29.8661 28.8193 30.4775 27.8099 31.2464C27.6895 30.6258 28.4303 30.3108 28.8748 29.968C29.4026 29.5697 29.949 29.2084 30.4398 28.8286C30.6065 28.8101 30.7083 28.8379 30.7917 28.9027Z" fill="var(--color-status-default)"></path>
<path fill-rule="evenodd" clip-rule="evenodd" d="M30.5011 29.8935C30.2974 30.4493 29.714 30.8291 29.2973 31.2367C28.8991 31.6258 28.5009 32.2002 27.9453 32.228C27.9824 31.7185 28.5657 31.3294 28.9361 30.9496C29.3436 30.542 29.8066 30.1529 30.214 29.8101C30.3622 29.7824 30.3992 29.8565 30.5011 29.8842V29.8935Z" fill="var(--color-status-default)"></path>
<path fill-rule="evenodd" clip-rule="evenodd" d="M19.0097 32.2376C18.7134 32.7749 18.0374 33.0713 17.5188 33.4418C16.991 33.8217 16.4724 34.2663 15.9539 34.4331C15.9261 33.7846 16.6854 33.4974 17.1577 33.1547C17.667 32.7841 18.1948 32.4136 18.7133 32.1634C18.8615 32.1357 18.8985 32.2098 19.0004 32.2376H19.0097Z" fill="var(--color-status-default)"></path>
<path fill-rule="evenodd" clip-rule="evenodd" d="M55.1153 32.877C54.7912 33.6274 53.93 33.9701 53.2725 34.3685C52.5873 34.7853 51.9483 35.2763 51.2168 35.5728C51.2909 34.8872 52.1521 34.5167 52.7725 34.1554C53.4855 33.7385 54.2819 33.3217 54.8282 32.8029C54.9764 32.7751 55.0134 32.8492 55.1153 32.877Z" fill="var(--color-status-default)"></path>
<path fill-rule="evenodd" clip-rule="evenodd" d="M18.9445 33.3029C18.7871 33.8588 18.1018 34.2293 17.5925 34.5072C17.0832 34.7944 16.435 35.1372 15.8887 35.1464C16.4906 34.1923 17.9537 34.0996 18.6574 33.2288C18.8056 33.2011 18.8426 33.2752 18.9445 33.3029Z" fill="var(--color-status-default)"></path>
<path fill-rule="evenodd" clip-rule="evenodd" d="M54.9665 34.2195C54.6794 34.8494 53.8646 35.1459 53.2627 35.4979C52.6422 35.8685 52.0403 36.3872 51.4199 36.4891C51.5588 35.8221 52.3089 35.5906 52.8367 35.2849C53.4386 34.9328 54.0961 34.5623 54.6054 34.1454C54.7721 34.1269 54.8739 34.1547 54.9573 34.2195H54.9665Z" fill="var(--color-status-default)"></path>
<path fill-rule="evenodd" clip-rule="evenodd" d="M6.95395 35.2209C7.00951 35.7211 6.34278 35.8601 6.02794 36.0731C5.72236 36.2769 5.37047 36.8143 5.03711 36.4993C5.44455 35.8879 6.2687 35.3321 6.95395 35.2209Z" fill="var(--color-status-default)"></path>
<path fill-rule="evenodd" clip-rule="evenodd" d="M54.7555 35.2206C54.5333 35.8227 53.8388 36.1377 53.3388 36.499C52.8572 36.8417 52.3479 37.4346 51.709 37.3512C52.385 36.3878 53.6443 36.0265 54.4037 35.1557C54.5703 35.1372 54.6722 35.165 54.7555 35.2298V35.2206Z" fill="var(--color-status-default)"></path>
<path fill-rule="evenodd" clip-rule="evenodd" d="M43.125 35.4987C42.7823 36.1101 41.9767 36.351 41.3563 36.703C40.7636 37.0365 40.1247 37.5923 39.4395 37.5553C40.2451 36.5455 41.7452 36.2213 42.7731 35.4246C42.9398 35.3968 43.0416 35.4339 43.125 35.4987Z" fill="var(--color-status-default)"></path>
<path fill-rule="evenodd" clip-rule="evenodd" d="M55.1161 35.9985C55.0606 36.7396 54.1346 37.0083 53.4864 37.351C52.8011 37.7123 52.0696 38.1106 51.4307 38.4164C51.3936 37.6197 52.4307 37.4622 53.0604 37.138C53.7456 36.7952 54.4031 36.4061 54.9032 35.9985H55.1161Z" fill="var(--color-status-default)"></path>
<path fill-rule="evenodd" clip-rule="evenodd" d="M43.0606 36.4253C42.4864 37.2868 41.3567 37.611 40.44 38.1298C40.1529 38.1946 40.2455 38.6393 39.801 38.556C39.7733 38.4911 39.7362 38.4262 39.6621 38.417C40.3288 37.3794 41.8382 37.1942 42.7087 36.3604C42.8754 36.3419 42.9772 36.3697 43.0606 36.4346V36.4253Z" fill="var(--color-status-default)"></path>
<path fill-rule="evenodd" clip-rule="evenodd" d="M19.012 36.4245C19.1602 37.1656 18.2064 37.4065 17.66 37.7029C17.0859 38.0086 16.4748 38.5459 15.8914 38.481C15.808 38.0086 16.3544 37.9715 16.6044 37.8418C17.373 37.4435 18.2805 37.0452 18.799 36.4245H19.012Z" fill="var(--color-status-default)"></path>
<path fill-rule="evenodd" clip-rule="evenodd" d="M30.855 36.777C30.1049 37.7034 28.6882 37.9721 27.7344 38.6946C27.8825 37.5367 29.6882 37.4347 30.5031 36.7122C30.6698 36.6936 30.7717 36.7215 30.855 36.7863V36.777Z" fill="var(--color-status-default)"></path>
<path fill-rule="evenodd" clip-rule="evenodd" d="M18.9484 37.7029C18.6151 38.1012 18.0687 38.305 17.5965 38.5551C17.115 38.8145 16.6797 39.1388 16.1797 39.3333C16.2445 38.305 17.7909 38.1661 18.5225 37.5639C18.7077 37.5639 18.9392 37.5269 18.9484 37.7029Z" fill="var(--color-status-default)"></path>
<path fill-rule="evenodd" clip-rule="evenodd" d="M30.7165 37.6286C30.522 38.2307 29.8275 38.4623 29.2997 38.768C28.7811 39.0644 28.2255 39.5369 27.6699 39.5461C28.1422 38.5086 29.7071 38.3974 30.4387 37.5544C30.5868 37.5266 30.6239 37.6008 30.7257 37.6286H30.7165Z" fill="var(--color-status-default)"></path>
<path fill-rule="evenodd" clip-rule="evenodd" d="M42.9836 37.7683C42.8725 38.1296 42.5206 38.074 42.2706 38.1944C41.4094 38.6206 40.6686 39.269 39.7148 39.6118C39.7241 39.0745 40.4556 38.7966 40.9927 38.4816C41.6039 38.1111 42.3169 37.4626 42.9744 37.7683H42.9836Z" fill="var(--color-status-default)"></path>
<path fill-rule="evenodd" clip-rule="evenodd" d="M55.117 37.7675C54.7188 38.2862 53.9132 38.6938 53.2743 39.0459C52.589 39.4257 51.9408 39.7962 51.2926 40.1853C51.1908 39.4627 52.1538 39.2311 52.8483 38.8421C53.5891 38.4252 54.3114 37.6563 55.117 37.7767V37.7675Z" fill="var(--color-status-default)"></path>
<path fill-rule="evenodd" clip-rule="evenodd" d="M43.338 38.2686C42.9676 38.9542 42.0139 39.0468 41.3564 39.3988C40.6897 39.7601 40.1989 40.4364 39.5137 40.4642C39.6433 39.8157 40.4582 39.5285 41.0786 39.1858C41.7175 38.8337 42.3935 38.491 42.9954 38.1945C43.1621 38.176 43.264 38.2038 43.3473 38.2686H43.338Z" fill="var(--color-status-default)"></path>
<path fill-rule="evenodd" clip-rule="evenodd" d="M18.7963 38.4815C18.1759 39.3801 16.9351 40.0193 15.8887 40.2509C16.4628 39.3338 17.7777 39.1578 18.5093 38.4074C18.6574 38.3796 18.6945 38.4537 18.7963 38.4815Z" fill="var(--color-status-default)"></path>
<path fill-rule="evenodd" clip-rule="evenodd" d="M55.0412 38.6943C54.7171 39.3428 53.893 39.6577 53.2725 40.0468C52.6521 40.4266 51.9761 41.0102 51.2168 40.9639C51.5409 40.3803 52.3002 40.1672 52.8466 39.8337C53.4855 39.4447 54.143 39.0834 54.6893 38.6295C54.856 38.6109 54.9579 38.6387 55.0412 38.7036V38.6943Z" fill="var(--color-status-default)"></path>
<path fill-rule="evenodd" clip-rule="evenodd" d="M5.10938 40.8902C5.28532 40.3529 5.87798 40.0286 6.3132 39.6859C6.72064 39.3709 7.20216 38.8614 7.72998 38.9077C7.26698 39.8433 6.15578 40.1213 5.53536 40.8994C5.36868 40.918 5.23902 41.0384 5.10938 40.8994V40.8902Z" fill="var(--color-status-default)"></path>
<path fill-rule="evenodd" clip-rule="evenodd" d="M19.0835 39.1201C18.6853 40.1669 17.3334 40.2503 16.6759 41.0377C17.5093 40.8247 18.1482 40.0465 19.0187 40.1114C18.7965 40.6209 18.1205 40.8432 17.6019 41.1026C17.1019 41.362 16.5 41.7696 15.9721 41.7418C15.8888 41.3527 16.2221 41.3712 16.3981 41.2415C16.3981 41.1026 16.1666 41.1952 16.1851 41.0285C16.7685 40.0743 18.0742 39.8427 18.8057 39.0368C18.9539 39.009 18.9909 39.0831 19.0928 39.1109L19.0835 39.1201Z" fill="var(--color-status-default)"></path>
<path fill-rule="evenodd" clip-rule="evenodd" d="M43.2717 39.195C42.6049 40.1862 41.2437 40.4734 40.2251 41.1126C40.0029 41.2423 39.8547 41.7518 39.4473 41.4646C40.1232 40.1955 41.9567 40.0936 42.9198 39.1209C43.0865 39.0931 43.1883 39.1302 43.2717 39.195Z" fill="var(--color-status-default)"></path>
<path fill-rule="evenodd" clip-rule="evenodd" d="M54.8278 39.611C54.5223 40.2038 53.7907 40.6022 53.1981 40.9542C52.5869 41.3248 51.9387 41.8065 51.2812 41.8806C51.5591 41.2784 52.2813 40.9264 52.8369 40.6022C53.4296 40.2594 54.0407 39.963 54.5408 39.5369C54.6889 39.5091 54.726 39.5832 54.8278 39.611Z" fill="var(--color-status-default)"></path>
<path fill-rule="evenodd" clip-rule="evenodd" d="M7.87815 40.5379C7.60035 41.0752 6.9799 41.3346 6.52616 41.6774C6.07242 42.0201 5.72054 42.5666 5.10938 42.6685C5.452 41.4921 6.72988 41.2605 7.45217 40.4638C7.62811 40.4638 7.79481 40.4545 7.87815 40.5379Z" fill="var(--color-status-default)"></path>
<path fill-rule="evenodd" clip-rule="evenodd" d="M31.5669 18.0451C31.5854 26.2713 31.6224 34.2659 31.5669 42.3809C30.7797 42.9553 29.3537 43.5574 28.3722 44.0113C28.0295 44.1688 27.5665 44.6876 27.2332 44.7246C26.8813 44.7617 25.6775 43.8353 25.3163 43.5852C24.2792 42.8812 23.668 42.455 22.6216 42.0289C22.492 36.0538 22.5476 27.7906 22.5476 21.028C22.5476 19.9905 22.3439 18.7399 22.5476 18.0451C22.7143 17.4986 23.9551 17.0169 24.5292 16.7019C25.4274 16.2109 26.0942 15.9515 26.659 15.4976C27.0665 15.1641 28.3999 16.0442 28.9277 16.424C29.2055 16.6185 29.3445 16.9613 29.6408 17.1373C30.3075 17.5356 31.0761 17.4893 31.5576 18.0637L31.5669 18.0451ZM26.9553 15.9886C25.9182 16.7945 24.4551 17.1743 23.4828 18.0451C24.9274 18.777 26.0664 19.8145 27.3165 20.7409C28.1777 19.6107 29.5945 19.0456 30.6501 18.1192C29.0944 17.7394 28.3073 16.5815 26.9646 15.9886H26.9553ZM26.9553 24.1499C26.9368 23.2977 27.0757 22.0471 26.8813 21.3801C26.7331 20.8613 25.7978 20.3147 25.1774 19.8886C24.3625 19.3235 23.6588 18.6195 23.1217 18.6102V41.4545C24.0199 42.0937 25.1959 42.7144 26.1034 43.298C26.3905 43.4833 26.6868 43.826 26.9553 43.7983C26.8442 37.6657 27.1035 30.4585 26.9553 24.1406V24.1499ZM27.5202 21.6672C28.3351 20.852 29.2981 20.1758 30.289 19.5366C30.4464 20.2314 29.5852 20.4907 29.15 20.815C28.6407 21.204 28.1592 21.5839 27.7332 21.9544C27.4739 21.9359 27.4184 21.8155 27.4461 22.1675C28.5018 22.0193 29.2055 20.5185 30.3538 20.463C30.0852 21.0651 29.4 21.3986 28.8629 21.8155C28.3351 22.2138 27.4924 22.5195 27.5109 23.2328C28.0203 23.0661 28.511 22.5195 29.0759 22.0934C29.5759 21.7136 30.2241 21.0558 30.8446 21.3152C30.0204 21.9452 29.15 22.6214 28.3629 23.2328C28.1036 23.4274 27.6591 23.5663 27.585 23.9461C28.1314 23.8349 28.6499 23.3347 29.2148 22.9549C29.7519 22.5936 30.3538 22.0193 30.9187 22.1767C30.4834 22.7233 29.8352 23.1124 29.2148 23.5293C28.6407 23.9091 27.7147 24.1314 27.585 24.9466C28.4462 24.7706 29.4278 23.1772 30.3538 23.3903C30.0389 23.9276 29.4185 24.1684 28.937 24.5205C28.437 24.891 27.8536 25.2338 27.585 25.7989C28.011 25.5858 28.6037 25.2523 29.15 24.8725C29.6315 24.539 30.1223 23.8072 30.7149 24.0943C30.289 24.6316 29.6778 24.9651 29.0852 25.3727C28.5573 25.734 27.7147 26.0212 27.5943 26.7901C28.7796 26.2065 29.7334 25.382 31.002 24.8725C30.9557 22.8345 31.0946 20.6112 30.9279 18.7029C29.8074 19.6663 27.9925 20.3055 27.5202 21.6858V21.6672ZM30.8538 25.2894C30.326 25.697 29.6963 26.0027 29.0852 26.3547C28.5203 26.6789 27.6776 26.9939 27.5943 27.772C28.0851 27.5497 28.5388 27.1977 29.0111 26.8457C29.4185 26.5492 29.9093 25.9563 30.4279 26.2065C29.6408 27.0773 28.5203 27.6146 27.5943 28.3371V29.9027C28.5666 29.2913 29.6963 28.2259 31.002 27.7072V27.068C30.1501 27.596 29.2333 28.2352 28.5203 28.8374C28.2888 29.0319 28.1314 29.5136 27.7424 29.3376C27.9184 28.578 28.724 28.263 29.2333 27.8461C29.7704 27.4015 30.2612 26.8086 31.0112 26.6419C30.9279 26.2343 31.1872 25.4746 30.8724 25.2986L30.8538 25.2894ZM27.5943 30.3288C27.6406 31.2737 27.5017 32.4131 27.6684 33.2376C28.0758 32.8393 28.5666 32.4502 29.0852 32.1074C29.5945 31.7647 30.1593 31.3386 30.7149 31.2552C30.5297 31.9963 29.6963 32.163 29.15 32.5336C28.5666 32.9319 28.0851 33.4322 27.585 33.8768C27.6313 34.0436 27.4924 34.3863 27.6591 34.4419C27.9462 34.2381 28.2795 34.0714 28.6499 33.9417C28.6407 33.7657 28.6407 33.5989 28.7888 33.5896C29.5945 33.3766 30.0667 32.4595 30.8446 32.4502C30.8724 32.8856 30.4742 32.8856 30.4927 33.3025C30.0019 33.5896 29.4833 33.9417 28.9277 34.2288C28.437 34.479 27.585 34.6272 27.5758 35.3683C27.9832 35.2015 28.5388 34.8773 29.1407 34.5901C29.65 34.34 30.3445 33.6545 30.8446 34.164C30.7427 34.3678 30.4279 34.3585 30.2056 34.4512C29.4648 35.2108 27.7147 35.146 27.585 36.4336C28.474 35.8963 29.613 35.007 30.9927 34.7291C30.9464 32.5336 31.0853 30.1435 30.9187 28.0592C29.7982 28.8003 28.7889 29.6618 27.585 30.3288H27.5943ZM30.789 35.1552C30.1686 35.3961 29.6037 35.7296 29.0111 36.0816C28.5018 36.3873 27.6776 36.6004 27.5943 37.36C28.0851 37.2396 28.5944 36.7949 29.1592 36.4336C29.6871 36.1001 30.2982 35.5165 30.8631 35.7203C29.9556 36.6281 28.6777 37.1747 27.6036 37.9251V41.1859C28.0851 40.8802 28.6685 40.5745 29.2333 40.2595C29.7426 39.9724 30.3167 39.4165 30.8631 39.6203C30.0297 40.7042 28.1406 40.732 27.6036 42.103C28.4555 41.788 29.6685 40.4819 30.7242 40.6116C30.1315 41.3527 29.0018 41.5842 28.2425 42.1771C27.9832 42.3716 27.585 42.7329 27.6036 43.1683C28.6685 42.9367 29.6963 41.6676 30.7983 41.4638C30.3168 42.4458 29.1037 42.6959 28.3166 43.3814C29.3907 43.0664 30.2427 42.5199 31.0112 41.8899C30.9649 40.8524 31.1039 39.6203 30.9372 38.694C29.9927 39.3146 28.8814 40.1391 27.8906 40.4726C28.048 39.7963 28.7888 39.574 29.3074 39.2683C29.8445 38.9533 30.3908 38.5087 31.0112 38.3419C30.9649 37.2766 31.1039 36.026 30.9372 35.0811C30.9187 35.1367 30.8816 35.1645 30.7983 35.1552H30.789Z" fill="var(--color-status-default)"></path>
</svg>