<svg xmlns="http://www.w3.org/2000/svg" width="452" height="324" viewBox="0 0 452 324" fill="none" data-inject-url="https://secureclientstorage.s3.amazonaws.com/step_03_zPPEJ6B.svg?X-Amz-Algorithm=AWS4-HMAC-SHA256&amp;X-Amz-Credential=AKIAJMN2KCFC4N5LU6JQ%2F20231106%2Fus-east-2%2Fs3%2Faws4_request&amp;X-Amz-Date=20231106T173817Z&amp;X-Amz-Expires=3600&amp;X-Amz-SignedHeaders=host&amp;X-Amz-Signature=9ac43fc5a4590b7b044147911404959d2226bf22281c8e3c0cb1a62d37a860dc" id="hiw_step_3" class="img-svginject home__steps-thumb" crossorigin="anonymous">
<title>Letters Sent</title><g filter="url(#filter0_d_2074_50527--inject-7)">
<rect width="273.899" height="183.13" transform="matrix(0.967973 -0.249508 0.268208 0.962915 26 125.34)" fill="url(#paint0_linear_2074_50527--inject-7)"></rect>
<path d="M194.536 178.582L35.5941 158.367L26.6133 125.931L291.169 57.3285L300.15 89.7649L194.536 178.582Z" fill="url(#paint1_linear_2074_50527--inject-7)"></path>
</g>
<g filter="url(#filter1_d_2074_50527--inject-7)">
<rect width="276.555" height="180.082" transform="matrix(0.998748 0.0499414 -0.0574931 0.998342 161.353 114)" fill="url(#paint2_linear_2074_50527--inject-7)"></rect>
<path d="M304.942 212.465L159.729 146.913L161.615 114.034L436.294 127.818L434.407 160.697L304.942 212.465Z" fill="url(#paint3_linear_2074_50527--inject-7)"></path>
</g>
<path d="M23.3309 94.0739C24.1509 93.6039 24.9309 93.1838 25.7009 92.9938C25.7309 92.9738 25.7808 92.9239 25.7908 92.9039C25.9408 92.6839 26.0309 92.4839 26.0809 92.3039C26.1409 92.5039 26.2608 92.6739 26.3608 92.7939C26.4008 92.8439 26.4109 92.8539 26.4509 92.8639C27.3409 93.0839 28.2209 93.3738 29.0909 93.6838C32.0109 94.7438 34.8208 96.1739 37.6208 97.6639L38.8209 98.3039C38.8209 98.3039 39.9108 98.8039 40.9908 99.3039C42.0708 99.7939 43.1308 100.254 43.0508 100.194C44.8808 100.894 46.1408 101.094 43.5408 99.3739C43.4308 99.2939 43.3109 99.2139 43.1909 99.1239C43.2609 98.8339 43.2909 98.3139 43.2609 97.4439C43.2409 96.5039 43.1108 95.3739 42.9808 94.4839C42.8508 93.5939 42.7209 92.9439 42.7209 92.9439L42.3108 91.3939C41.7708 89.4139 41.2009 87.4538 40.7509 85.4938L40.4409 84.1039C40.3309 83.6539 40.2408 83.2139 40.1808 82.7839C40.1708 82.7539 40.1109 82.6839 40.1009 82.6739C40.0209 82.6039 39.9408 82.5538 39.8608 82.4938C40.8508 82.0238 41.6509 81.3738 42.3909 80.7138C43.7009 79.4938 44.8108 78.1639 45.9208 76.8539L46.8008 75.8139C46.8008 75.8139 47.5108 74.8539 48.2308 73.9439C48.9508 73.0339 49.7108 72.2039 49.6208 72.2539C50.2308 71.5439 50.7708 70.9838 50.8008 70.7438C50.8208 70.6338 50.7108 70.5939 50.4208 70.7039C50.2808 70.7539 50.0909 70.8439 49.8509 70.9739C49.6209 71.1039 49.3509 71.2938 49.0209 71.5238C48.2509 72.0738 47.3808 72.8239 46.7408 73.4439C46.2008 73.9639 45.7908 74.3738 45.6708 74.4938C45.7708 74.3538 45.8209 74.1339 45.7709 73.7839C45.7409 73.1539 45.4609 72.4038 45.4609 72.4038C45.4609 72.4038 44.7609 71.4739 44.0109 70.5639C43.7709 70.2739 43.5308 69.9839 43.3108 69.7339C43.7108 69.7839 44.1109 69.8338 44.5109 69.8738L45.8809 70.0039C45.8809 70.0039 47.0909 70.0439 48.2809 70.0539C49.4609 70.0539 50.6209 70.0538 50.5209 70.0238C52.4609 69.9338 53.7209 69.6339 50.6409 69.0739C48.8309 68.7039 46.2609 68.3139 46.2609 68.3139L44.7009 68.1639C42.5309 67.9239 40.3709 67.6139 38.2709 67.1139C37.6609 66.9639 37.0609 66.8038 36.4609 66.6238L35.4208 65.1238C34.3508 63.5738 33.2809 62.0339 32.1909 60.4839V60.4739L31.3809 59.0939C30.5209 57.6339 29.6608 56.1739 28.8608 54.7039L28.2009 53.4638L27.8509 52.7738C27.7109 52.5638 27.6408 52.4339 27.5608 52.2539C27.5408 52.2339 27.4709 52.1938 27.4609 52.1838C27.3809 52.1538 27.3108 52.1339 27.2408 52.1139C27.2208 52.0139 27.1608 51.9939 27.0508 52.0639C26.9908 52.0539 26.9308 52.0339 26.8708 52.0339C26.7008 51.9939 26.5509 51.9839 26.4109 52.0339C26.1309 52.1539 26.0008 52.5439 25.9808 52.7939C25.9708 52.8739 25.9808 52.8938 25.9908 52.9338C26.0208 53.0138 26.0708 53.0939 26.1108 53.1739C26.0408 53.2739 25.9809 53.3639 25.9009 53.4739C24.8409 55.0039 23.5309 57.2738 23.5309 57.2738L22.8209 58.6838C21.8809 60.5338 20.8909 62.3539 19.7709 64.0739C19.2609 64.8439 18.7308 65.6039 18.1508 66.3239C18.1308 66.3539 18.1208 66.4439 18.1208 66.4739C18.1408 67.6339 18.9409 67.6238 19.3809 67.4638C19.4509 67.4438 19.4609 67.4338 19.4809 67.4038C19.7509 67.0638 20.0109 66.7139 20.2709 66.3639L22.5408 69.2939C25.6608 73.3539 28.7609 77.4439 31.9409 81.4839L33.0709 82.9139C33.0709 82.9139 34.1509 84.1038 35.2209 85.2738C36.2909 86.4338 37.3708 87.5439 37.3008 87.4239C39.1708 89.2239 40.6209 90.1539 38.3209 86.6739C37.0209 84.5839 35.0408 81.7239 35.0408 81.7239L33.7308 80.0639C30.5708 76.0439 27.4809 71.9639 24.3509 67.8939L22.0209 64.8839C22.0209 64.8839 21.8609 64.8039 21.8409 64.8039C21.6709 64.7639 21.5209 64.7538 21.3809 64.7438C22.4709 63.0338 23.4309 61.2639 24.3409 59.4839L24.9609 58.2539C24.9609 58.2539 25.4209 57.1439 25.8809 56.0439C25.9109 55.9639 25.9508 55.8739 25.9808 55.7939L28.0709 58.6339C29.9209 61.2039 31.7308 63.8039 33.5408 66.4139L34.5709 67.9139C34.5709 67.9139 38.5408 72.9739 38.4308 72.7239C40.1308 74.6739 41.5009 75.7339 39.5109 72.0639C38.9709 71.0039 38.2809 69.7439 37.7009 68.7339C37.7609 68.7439 37.8108 68.7638 37.8708 68.7738C39.0408 69.0438 40.2109 69.2639 41.3809 69.4439C41.0609 69.7539 40.8509 70.0339 40.7609 70.2039C40.7309 70.2539 40.7308 70.2539 40.7408 70.2639C40.7508 70.2739 40.9409 70.4939 41.2209 70.8039C41.5009 71.1239 41.8609 71.5439 42.2209 71.9739C42.9309 72.8339 43.6108 73.7239 43.6108 73.7239C43.6108 73.7239 44.7308 74.5839 44.7408 74.5039C45.0608 74.6639 45.4009 74.7239 45.6009 74.5439L44.6009 75.7339C43.5009 77.0339 42.4109 78.3238 41.2109 79.4338C40.5409 80.0338 39.8408 80.5839 39.1208 80.9239C39.0908 80.9439 39.0508 81.0139 39.0408 81.0339C38.8308 81.5239 38.8208 81.8939 38.9808 82.1339C39.0208 82.1939 39.0608 82.2439 39.1208 82.2839C39.1008 82.2839 39.0909 82.2839 39.0709 82.2839C38.7909 82.3539 38.5908 82.6438 38.4908 82.8738C38.4608 82.9438 38.4609 82.9539 38.4609 83.0039C38.5309 83.5239 38.6409 84.0139 38.7509 84.4839L39.0608 85.8739C39.5308 87.8939 40.1109 89.8739 40.6409 91.8339L40.9908 93.1439C40.9908 93.1439 41.3709 94.2839 41.6909 95.3939C42.0209 96.5139 42.2808 97.6139 42.2908 97.5139C42.4208 97.9939 42.5509 98.4239 42.6609 98.7539C41.3009 97.8239 39.8108 96.8839 39.8108 96.8839L38.4109 96.1339C35.6009 94.6339 32.7209 93.1639 29.6609 92.0539C29.5109 92.0039 29.3609 91.9539 29.2109 91.9039C29.0409 91.6039 28.8308 91.2439 28.5608 90.8239C27.2908 88.7139 25.3409 85.8239 25.3409 85.8239L24.0508 84.1539C22.3508 81.9239 20.6808 79.6738 19.0308 77.4038L16.5608 73.9938C15.7808 72.8938 15.0309 71.6839 14.1609 70.5039C13.7309 69.9339 13.2809 69.3639 12.7709 68.8239H12.8108C12.8108 68.8239 14.7308 68.6439 16.0908 68.5039C16.0908 68.5539 16.1109 68.5838 16.1309 68.6238C16.9209 69.6638 17.7508 70.6439 18.5608 71.6139C19.5108 72.7439 20.4309 73.8438 21.2609 74.9938L23.8209 78.5639C25.5109 80.9539 27.1609 83.3839 28.8309 85.8139L29.8708 87.3139C29.8708 87.3139 30.8808 88.5739 31.8608 89.8139C32.8608 91.0439 33.8708 92.2139 33.8108 92.0939C35.5808 94.0039 36.9808 94.9939 34.8708 91.4039C33.6908 89.2439 31.9109 86.2639 31.9109 86.2639L30.7109 84.5238C29.0509 82.1038 27.4009 79.6639 25.6909 77.2539L23.1108 73.6538C22.2208 72.4138 21.2508 71.2739 20.3108 70.1439C19.7408 69.4639 19.1809 68.7839 18.6309 68.0939C18.9809 67.9939 19.2209 67.8939 19.3009 67.8039C19.4209 67.6539 19.1008 67.5439 18.1208 67.4539C18.0608 67.3839 18.0009 67.3139 17.9509 67.2339C17.9109 67.1939 17.8009 67.1538 17.7709 67.1538C17.1609 67.0038 16.7609 67.1039 16.5009 67.3039C14.8209 67.1739 12.9709 67.1039 12.9709 67.1039L11.3809 67.1639C8.98086 67.2639 6.59085 67.3739 4.16085 67.6939C3.68085 67.7639 3.19086 67.8439 2.70086 67.9439C2.20086 68.0639 1.71086 68.1639 1.13086 68.4539C1.08086 68.4839 1.01085 68.5839 1.00085 68.6039C1.00085 68.6139 1.00086 68.6239 0.980862 68.6339C0.860862 68.6439 0.750845 68.6739 0.650845 68.7039C0.620845 68.7139 0.570872 68.7239 0.490872 68.7339C0.410872 68.7239 0.240866 68.7539 0.140866 68.8439C0.0408658 68.9439 0.0108512 69.0039 0.000851188 69.1439C-0.00914881 69.2839 0.0708658 69.4338 0.140866 69.4938C0.180866 69.5338 0.160844 69.5039 0.180844 69.5139C0.210844 69.5139 0.240861 69.5239 0.260861 69.5339C0.310861 69.5239 0.350866 69.4939 0.390866 69.4739C0.390866 69.4839 0.390856 69.4939 0.380856 69.5039L0.320859 69.7138C0.320859 69.7138 0.320859 69.7239 0.320859 69.7339C0.320859 69.8439 0.360857 69.9538 0.350857 70.0238C0.350857 70.0438 0.350857 70.0539 0.350857 70.0639C0.330857 70.0939 0.380863 70.0139 0.450863 69.9239C0.530863 69.8339 0.570855 69.7638 0.660855 69.6838L0.410855 70.1139C1.11085 70.6539 1.79086 71.2139 2.42086 71.8539C4.09086 73.4939 5.54087 75.4039 6.96087 77.3439L7.75085 78.4439C7.75085 78.4439 8.51086 79.3739 9.26086 80.2939C10.0109 81.2139 10.7909 82.0838 10.7409 81.9938C11.4109 82.7038 12.0409 83.2238 12.2709 83.2438C12.5109 83.2538 12.3309 82.7938 11.5309 81.4638C11.0809 80.6638 10.5108 79.7039 10.0608 78.9439C9.59085 78.1739 9.26086 77.6238 9.26086 77.6238L8.33087 76.3339C6.89087 74.3639 5.40087 72.3838 3.61087 70.6238C3.30087 70.3138 2.98085 70.0239 2.65085 69.7339C2.79085 69.6939 2.93086 69.6639 3.07086 69.6339C3.50086 69.5439 3.95085 69.4638 4.41085 69.4038C4.48085 69.4038 4.55087 69.3939 4.61087 69.3839C4.58087 69.6639 4.64087 69.9339 4.71087 70.1439C4.73087 70.2239 4.74085 70.2338 4.78085 70.2738C5.69085 70.9538 6.52085 71.8138 7.31085 72.7438C8.01085 73.5638 8.67087 74.4439 9.36087 75.3439C10.0609 76.2539 10.7809 77.1039 11.4909 77.9839L15.7709 83.2239L16.9209 84.6339C16.9209 84.6339 21.2809 89.3739 21.1509 89.1339C22.9909 90.9539 24.4208 91.9139 22.1808 88.3939C20.9008 86.2839 18.8909 83.4338 18.8909 83.4338L17.5509 81.7939L13.2909 76.5739C12.5909 75.7039 11.8508 74.8338 11.1808 73.9638C10.5008 73.0738 9.81085 72.1539 9.06085 71.2639C8.44085 70.5339 7.77085 69.8239 7.03085 69.1639C7.96085 69.0939 8.90085 69.0339 9.84085 68.9839C9.86085 69.0939 9.89087 69.2039 9.92087 69.2939C9.94087 69.3739 9.95087 69.3839 9.99087 69.4139C10.8509 70.0239 11.6208 70.9338 12.3408 71.9038C13.1408 72.9838 13.8709 74.1739 14.7209 75.3639L17.2009 78.7939C18.8609 81.0739 20.5409 83.3439 22.2609 85.5839L23.3708 87.0339C23.3708 87.0339 24.4408 88.2339 25.4908 89.4239C26.1908 90.1939 26.8809 90.9439 27.2509 91.3339C27.1309 91.3039 27.0109 91.2639 26.8909 91.2339C26.8509 91.2339 26.7608 91.2539 26.7408 91.2639C26.3308 91.4539 26.1409 91.6739 26.0709 91.9039C26.0709 91.9039 26.0709 91.8939 26.0709 91.8839C25.9709 91.6139 25.6708 91.4339 25.4308 91.3639C25.3608 91.3339 25.3408 91.3439 25.2908 91.3539C24.2108 91.6339 23.3208 92.1439 22.4908 92.6139C21.8208 92.9939 21.1309 93.3539 20.4509 93.7239C20.4309 93.6539 20.4008 93.5739 20.3708 93.4839C20.0708 92.4939 19.4308 91.2438 19.4308 91.2438C19.4308 91.2438 18.1709 89.5339 16.8509 87.8339C16.1909 86.9839 15.5209 86.1338 15.0109 85.4938C14.4909 84.8638 14.1408 84.4239 14.1208 84.4039C14.1208 84.4039 14.0909 84.4039 14.0709 84.4039C14.2409 82.7339 14.0809 81.8739 13.1109 84.5739C13.0609 84.6939 13.0109 84.8239 12.9609 84.9539C12.6209 85.2539 12.4309 85.5939 12.3609 85.8039C12.3409 85.8639 12.3409 85.8639 12.3609 85.8839C12.3609 85.8839 12.4409 85.9739 12.5309 86.0939C12.2009 86.9739 11.9009 87.8239 11.7309 88.3239C11.7309 88.3239 11.7109 88.3239 11.7009 88.3339C11.6609 88.3539 11.6309 88.3739 11.6009 88.4039C11.5509 88.4439 11.5009 88.4939 11.4609 88.5439C11.2709 88.7539 11.1608 89.1139 11.1808 89.3339C11.1808 89.4839 11.2309 89.6738 11.2809 89.7738C11.2809 89.7738 11.2809 89.7939 11.2909 89.8039L11.1609 90.2939C10.4909 92.7439 9.81085 95.2239 9.25085 97.7339C9.05085 98.6739 8.85084 99.6139 8.68084 100.564C8.68084 100.604 8.71085 100.694 8.72085 100.714C8.81085 100.874 8.90085 100.984 9.00085 101.084C8.90085 101.214 8.84087 101.324 8.83087 101.394C8.81087 101.544 8.99085 101.534 9.47085 101.344C9.82085 101.394 10.1408 101.164 10.3108 100.974C10.3408 100.944 10.3509 100.934 10.3609 100.914C10.4509 100.864 10.5408 100.824 10.6508 100.764C12.4908 99.8739 14.6309 98.8439 14.6309 98.8439L16.0109 98.0839C18.4309 96.7739 20.9009 95.4839 23.3309 94.1239V94.0739ZM13.5809 87.3339C14.0209 87.8739 14.5209 88.5139 15.0209 89.1539C16.3009 90.8039 17.5409 92.4839 17.5409 92.4839C17.5409 92.4839 19.3608 94.2938 19.3408 94.1838C19.3708 94.2038 19.4008 94.2239 19.4308 94.2539C18.8208 94.5839 18.2108 94.9138 17.5908 95.2438C17.4508 94.4638 17.0509 93.5039 17.0509 93.5039C15.8609 91.8539 14.6609 90.1839 13.3309 88.5839C13.4009 88.2239 13.4909 87.7939 13.5809 87.3339ZM10.6208 99.5339C10.6708 99.2739 10.7309 99.0038 10.7809 98.7438C10.8609 98.8638 10.9209 98.9439 10.9209 98.9439C10.9209 98.9439 11.0609 99.0239 11.2009 99.0939C10.9809 99.2539 10.7808 99.4039 10.6208 99.5339ZM12.3609 98.2839C12.3609 98.1339 12.3609 98.0139 12.3609 98.0139C12.3609 98.0139 12.1009 97.6138 11.8309 97.2138C11.5609 96.8138 11.3708 96.4539 11.4008 96.5039C11.4008 96.5039 11.3508 96.5239 11.3408 96.5339C11.3208 96.5339 11.3009 96.5439 11.2809 96.5539C11.3809 96.1339 11.4908 95.7039 11.5908 95.2839C12.1408 96.0239 12.6709 96.7239 12.6709 96.7239C12.6709 96.7239 12.8908 96.9039 13.1208 97.0939C13.3408 97.2739 13.5608 97.4539 13.5608 97.4239C13.5708 97.4239 13.5909 97.4339 13.6009 97.4439C13.2909 97.6439 12.8309 97.9438 12.3509 98.2738L12.3609 98.2839ZM14.3708 96.9938C14.3708 96.9938 14.3708 96.9439 14.3708 96.9239C14.3308 96.3939 14.0809 95.7539 14.0809 95.7539C14.0809 95.7539 13.5009 94.9738 12.9109 94.1838C12.6309 93.7938 12.3709 93.4139 12.2009 93.1139C12.2009 93.1039 12.1908 93.0839 12.1808 93.0739C12.3308 92.5139 12.4809 91.9639 12.6309 91.4039C13.4909 92.5039 14.3208 93.6339 15.1508 94.7839C15.1508 94.7839 16.0408 95.6039 16.4008 95.8939C16.0008 96.1139 15.6009 96.3239 15.1909 96.5439L14.3708 97.0039V96.9938Z" fill="var(--color-status-hover)"></path>
<path d="M135.572 68.5999L135.892 66.2899L137.292 56.2099L137.872 52.0599C137.872 51.9999 137.812 51.8799 137.802 51.8499C137.602 51.5199 137.392 51.2999 137.182 51.1599C137.672 50.9699 137.142 50.5899 134.702 49.9399C132.092 49.1799 128.332 48.3799 128.332 48.3799L97.8017 44.0099L93.6617 43.4199C93.6017 43.4199 93.4817 43.4799 93.4517 43.4899C92.8917 43.8299 92.6517 44.1899 92.5817 44.5199C92.0017 44.3499 91.4617 44.7399 91.1817 45.0699C91.1117 45.1399 91.1117 45.1599 91.1017 45.2199L90.5217 49.3699L88.9717 60.5699L88.6917 62.5599C88.6917 62.5599 88.1317 69.6299 88.2317 69.3499C88.2117 69.8699 88.2117 70.3599 88.2317 70.7799L88.2217 70.7999C87.9317 71.4999 87.9417 71.9999 88.1617 72.3499C88.0917 72.8699 88.4517 73.3299 88.7417 73.5899C88.8117 73.6599 88.8317 73.6699 88.8917 73.6699L93.0317 74.2599L123.522 78.6199C123.522 78.6199 130.572 79.1999 130.292 79.1099C133.132 79.2099 135.022 78.9199 130.572 77.7399C127.962 76.9799 124.202 76.1799 124.202 76.1799L93.3917 71.7699L91.6917 71.5299C92.1917 71.1799 92.6617 70.8199 93.1317 70.4799C94.8017 69.2499 96.5417 67.9499 98.2417 66.6599L99.8417 65.4499C99.8417 65.4499 105.242 60.8399 104.972 60.9799C105.512 60.4799 105.982 60.0099 106.312 59.6199C106.622 59.8799 106.962 60.1499 107.292 60.4199C108.642 61.5199 110.012 62.5499 109.922 62.4299C110.832 63.0599 111.642 63.5499 112.122 63.7299C112.192 63.9199 112.302 64.0599 112.432 64.1699C112.762 64.4399 113.172 64.5399 113.462 64.5799C113.552 64.5999 113.572 64.5799 113.622 64.5599C114.702 63.9599 116.012 63.4799 117.322 62.9299C117.772 62.7399 118.242 62.5399 118.692 62.3099L118.932 62.1999C119.762 63.1399 120.522 64.0499 121.292 65.0599L125.312 70.1499L126.552 71.7199C126.552 71.7199 131.272 77.0099 131.132 76.7399C132.792 78.4399 134.152 79.4599 133.162 77.4999C133.372 77.1999 133.652 76.4299 134.032 74.9999C134.782 72.3799 135.562 68.6099 135.562 68.6099L135.572 68.5999ZM104.212 59.7899C101.832 61.0999 98.6217 63.1999 98.6217 63.1999L96.7617 64.5999C95.0517 65.8899 93.3817 67.1399 91.6117 68.4399C90.9017 68.9699 90.2117 69.4799 89.5217 69.9299C89.5517 69.8299 89.5717 69.7399 89.6017 69.6299C90.3517 67.0099 91.1417 63.2399 91.1417 63.2399L91.4617 60.9299L93.0217 49.7299L93.3217 47.5999C93.9117 48.1099 94.4917 48.6299 95.0717 49.1599C97.7917 51.6299 100.442 54.2099 103.132 56.7899L104.582 58.1799C104.582 58.1799 105.012 58.5399 105.612 59.0399C105.242 59.2199 104.782 59.4699 104.202 59.8099L104.212 59.7899ZM118.892 59.4099L117.592 60.0399C117.192 60.2399 116.792 60.4199 116.362 60.5999C115.102 61.1299 113.782 61.5999 112.412 62.3499C112.362 62.3899 112.282 62.5199 112.272 62.5499C112.222 62.6599 112.182 62.7699 112.152 62.8599C111.882 62.4999 111.482 62.0299 110.922 61.4199C109.152 59.3799 106.562 56.5599 106.562 56.5599L104.882 54.9599C102.212 52.3999 99.5417 49.7999 96.7817 47.2799C96.4017 46.9299 96.0117 46.5899 95.6217 46.2499L97.4717 46.5099L127.682 50.8299C127.682 50.8299 134.732 51.4099 134.452 51.3199C134.912 51.3399 135.332 51.3399 135.712 51.3399C135.622 51.4099 135.552 51.4899 135.482 51.5699C135.412 51.6399 135.412 51.6599 135.402 51.7199L135.352 52.0999C135.182 52.1699 135.012 52.2299 134.822 52.3099C132.282 53.2399 128.742 54.6999 128.742 54.6999L126.652 55.7199L121.502 58.1999L118.922 59.4399L118.892 59.4099ZM133.132 67.9199C133.132 67.9199 132.572 74.9899 132.672 74.7099C132.652 75.4299 132.652 76.0899 132.682 76.5999C132.562 76.3999 132.432 76.1799 132.282 75.9399C130.912 73.5899 128.732 70.4199 128.732 70.4199L127.282 68.5899L123.282 63.4999C122.862 62.9499 122.422 62.3799 121.952 61.8299C121.732 61.5699 121.512 61.3099 121.292 61.0599L122.542 60.4599L127.712 57.9699L129.512 57.0899C129.512 57.0899 131.042 56.1999 132.552 55.3199C133.602 54.6999 134.602 54.0799 135.072 53.7699L134.782 55.8599L133.382 65.9399L133.102 67.9299L133.132 67.9199Z" fill="var(--color-status-hover)"></path>
<path d="M450.881 221.924C450.761 217.994 450.181 212.454 450.181 212.454L449.601 209.124L447.091 194.644L446.061 188.674C446.031 188.594 445.901 188.444 445.871 188.414C445.451 188.044 445.071 187.844 444.721 187.744C445.311 187.254 444.421 186.964 440.771 187.164C436.851 187.274 431.321 187.834 431.321 187.834L387.411 195.344L381.461 196.364C381.381 196.394 381.231 196.524 381.201 196.554C380.581 197.264 380.401 197.864 380.461 198.364C379.581 198.384 379.021 199.164 378.781 199.734C378.711 199.864 378.721 199.894 378.731 199.984L379.771 205.954L382.571 222.054L383.071 224.904C383.071 224.904 385.421 234.874 385.421 234.444C385.631 235.164 385.831 235.834 386.041 236.414C386.041 236.434 386.041 236.444 386.041 236.454C385.961 237.554 386.191 238.234 386.651 238.614C386.791 239.354 387.481 239.844 388.001 240.064C388.131 240.134 388.161 240.124 388.251 240.114L394.201 239.094L438.041 231.584C438.041 231.584 447.991 229.264 447.561 229.254C451.511 228.134 453.981 226.894 447.351 227.244C443.431 227.354 437.901 227.914 437.901 227.914L393.591 235.494L391.141 235.914C391.671 235.214 392.171 234.514 392.651 233.824C393.101 233.194 393.531 232.574 393.981 231.974C394.451 231.374 394.881 230.724 395.331 230.094L398.001 226.304L399.671 223.934C399.671 223.934 405.071 215.204 404.761 215.514C405.281 214.584 405.721 213.724 406.011 213.044C406.561 213.264 407.131 213.484 407.711 213.704C410.061 214.614 412.391 215.434 412.211 215.304C413.721 215.784 415.071 216.084 415.811 216.114C415.991 216.344 416.211 216.494 416.431 216.584C417.001 216.814 417.611 216.774 418.031 216.694C418.171 216.674 418.181 216.654 418.241 216.604C419.461 215.304 421.051 214.064 422.611 212.724C423.141 212.264 423.711 211.774 424.221 211.254L424.491 210.994C425.191 211.404 425.881 211.824 426.541 212.244C427.351 212.754 428.161 213.314 429.001 213.884L436.761 219.104L439.161 220.714C439.161 220.714 447.981 225.894 447.671 225.594C450.711 227.194 453.041 228.014 450.801 225.734C450.961 225.224 451.001 224.034 450.891 221.914L450.881 221.924ZM403.171 214.234C400.481 217.084 396.991 221.394 396.991 221.394L395.051 224.144L392.391 227.914C391.941 228.544 391.521 229.174 391.041 229.794C390.561 230.434 390.111 231.074 389.661 231.704C388.921 232.744 388.201 233.754 387.441 234.674C387.441 234.524 387.431 234.384 387.421 234.224C387.301 230.294 386.721 224.754 386.721 224.754L386.141 221.424L383.351 205.324L382.821 202.264C383.851 202.714 384.881 203.164 385.911 203.624C390.751 205.824 395.531 208.194 400.351 210.544L402.961 211.804C402.961 211.804 403.701 212.104 404.761 212.534C404.331 212.954 403.801 213.504 403.171 214.214V214.234ZM426.191 204.364L423.181 207.204L421.661 208.644C421.201 209.104 420.731 209.514 420.211 209.954C418.721 211.244 417.101 212.474 415.551 214.104C415.501 214.184 415.451 214.384 415.441 214.444C415.421 214.624 415.421 214.784 415.421 214.934C414.891 214.564 414.131 214.084 413.091 213.494C409.761 211.464 404.951 208.744 404.951 208.744L401.931 207.284C397.131 204.944 392.321 202.554 387.401 200.314C386.721 200.004 386.031 199.704 385.351 199.404L388.011 198.954L431.451 191.514C431.451 191.514 441.401 189.194 440.971 189.184C441.601 189.004 442.191 188.824 442.711 188.644C442.621 188.784 442.551 188.924 442.501 189.054C442.431 189.184 442.441 189.214 442.451 189.304L442.551 189.854C442.341 190.024 442.141 190.184 441.911 190.374C438.821 192.774 434.601 196.354 434.601 196.354L432.181 198.684L426.191 204.374V204.364ZM448.891 224.004C445.971 221.374 441.581 217.974 441.581 217.974L438.781 216.094L431.031 210.874C430.211 210.314 429.351 209.724 428.461 209.164C428.041 208.904 427.631 208.644 427.221 208.394L428.681 207.014L434.691 201.304L436.781 199.294C436.781 199.294 438.521 197.404 440.181 195.514C441.341 194.204 442.451 192.904 442.971 192.264L443.491 195.264L446.011 209.734L446.511 212.584C446.511 212.584 448.861 222.554 448.871 222.124C449.161 223.124 449.451 224.034 449.721 224.724C449.471 224.504 449.191 224.254 448.891 223.994V224.004Z" fill="var(--color-status-hover)"></path>
<path d="M268.095 149.043L268.045 149.303L267.995 149.783C267.995 149.783 267.995 149.793 267.995 149.803C267.995 149.803 267.975 149.793 267.975 149.783C267.755 149.643 267.505 149.543 267.265 149.433C267.015 149.343 266.745 149.253 266.485 149.193L266.075 149.123L265.875 149.093H265.775H265.285C265.105 149.093 264.935 149.133 264.755 149.153C263.335 149.383 262.215 150.143 261.335 150.993C260.445 151.853 259.775 152.843 259.225 153.883C258.165 155.973 257.585 158.313 257.815 160.743C257.835 161.043 257.895 161.343 257.945 161.653C257.995 161.953 258.065 162.203 258.125 162.483C258.255 163.033 258.415 163.573 258.605 164.123C258.795 164.673 259.025 165.233 259.345 165.793C259.675 166.343 260.065 166.943 260.795 167.413C261.155 167.653 261.605 167.813 262.075 167.873C262.545 167.913 263.005 167.853 263.385 167.713C264.165 167.443 264.695 167.013 265.165 166.593C266.085 165.733 266.735 164.783 267.335 163.833C268.285 162.283 269.055 160.673 269.715 159.023C270.075 160.013 270.475 160.993 270.995 161.953C271.545 162.963 272.145 163.963 273.155 164.873C273.505 165.193 273.965 165.483 274.495 165.693L274.925 165.823C275.075 165.853 275.235 165.873 275.385 165.883C275.565 165.903 275.635 165.893 275.745 165.893H276.055C276.465 165.883 276.875 165.893 277.285 165.823C277.695 165.783 278.115 165.743 278.535 165.643L279.165 165.513L279.785 165.313C280.205 165.193 280.605 164.983 281.005 164.793C281.785 164.343 282.545 163.813 283.125 163.093C284.315 161.683 284.865 159.913 285.025 158.263C285.205 156.593 285.045 154.963 284.755 153.393C284.465 151.823 283.995 150.303 283.425 148.833C282.835 147.363 282.155 145.933 281.215 144.563L280.835 144.053C280.695 143.883 280.545 143.693 280.405 143.553L279.575 142.713C279.045 142.133 278.415 141.643 277.825 141.113C276.575 140.133 275.275 139.183 273.785 138.503C272.315 137.813 270.735 137.313 269.095 137.103C267.455 136.893 265.775 137.013 264.185 137.373C260.985 138.113 258.125 139.823 255.795 141.953C253.435 144.073 251.495 146.583 249.935 149.303C248.375 152.013 247.195 154.983 246.585 158.093C245.985 161.143 245.695 164.383 246.465 167.613C246.855 169.213 247.505 170.793 248.505 172.153C249.485 173.533 250.775 174.653 252.185 175.523C255.035 177.223 258.235 177.903 261.335 178.163C264.455 178.413 267.555 178.233 270.595 177.843C273.645 177.443 276.645 176.833 279.595 176.053C281.075 175.663 282.535 175.233 283.985 174.763L285.835 174.143L287.485 173.543C287.485 173.543 289.135 172.823 290.695 172.023C292.265 171.233 293.755 170.353 293.605 170.393C294.825 169.623 295.745 168.833 295.825 168.503C295.895 168.153 295.195 168.323 293.065 169.103C291.795 169.533 290.265 170.043 289.035 170.423C287.815 170.793 286.905 171.073 286.905 171.073C286.365 171.283 285.815 171.473 285.275 171.673L284.865 171.813L283.775 172.183C283.055 172.423 282.335 172.653 281.605 172.873C278.705 173.743 275.745 174.463 272.775 174.973C269.795 175.483 266.795 175.793 263.815 175.763C260.845 175.723 257.865 175.343 255.245 174.253C253.925 173.713 252.735 172.973 251.735 172.043C250.745 171.103 249.965 169.973 249.445 168.693C248.385 166.133 248.365 163.133 248.775 160.233C248.875 159.503 249.025 158.773 249.165 158.043L249.425 156.983L249.735 155.933C250.185 154.533 250.765 153.173 251.435 151.853C252.775 149.213 254.515 146.773 256.585 144.693C258.645 142.613 261.105 140.943 263.805 140.103C266.485 139.263 269.395 139.353 271.995 140.483C273.295 141.033 274.545 141.733 275.685 142.643L276.115 142.963L276.525 143.323L277.345 144.043L278.125 144.823C278.375 145.083 278.665 145.353 278.845 145.583C279.655 146.613 280.355 147.963 280.905 149.293C281.475 150.643 281.915 152.053 282.215 153.473C282.515 154.893 282.655 156.343 282.565 157.713C282.505 158.403 282.385 159.063 282.195 159.683C281.985 160.293 281.695 160.853 281.335 161.333C280.945 161.793 280.495 162.193 279.955 162.503C279.405 162.783 278.815 163.033 278.145 163.153L277.655 163.253L277.145 163.303C276.805 163.353 276.455 163.353 276.105 163.363C275.945 163.363 275.725 163.373 275.605 163.363C275.575 163.363 275.545 163.353 275.515 163.363C275.475 163.353 275.445 163.333 275.405 163.323C275.245 163.253 275.035 163.153 274.825 162.953C274.245 162.443 273.695 161.623 273.245 160.763C272.785 159.903 272.405 158.963 272.055 158.013C271.705 157.013 271.395 155.973 271.155 154.933C271.475 153.803 271.735 152.643 271.885 151.403C271.935 150.803 272.005 150.223 271.835 149.413C271.795 149.213 271.725 148.983 271.585 148.713C271.505 148.573 271.435 148.443 271.285 148.293C271.215 148.223 271.145 148.153 271.065 148.083C270.975 148.013 270.875 147.953 270.775 147.903C270.575 147.783 270.355 147.753 270.135 147.713C269.935 147.693 269.765 147.713 269.585 147.733C269.445 147.763 269.315 147.803 269.175 147.853C269.065 147.903 268.965 147.943 268.865 147.993L268.785 148.033C269.315 147.313 268.015 149.043 268.145 148.873V148.903L268.115 149.033L268.095 149.043ZM268.245 153.363C268.325 153.853 268.415 154.343 268.515 154.823C268.295 155.553 268.055 156.273 267.795 156.983C267.075 158.903 266.225 160.793 265.175 162.493C264.655 163.333 264.065 164.143 263.435 164.723C263.125 165.003 262.795 165.243 262.565 165.303C262.325 165.373 262.295 165.363 262.125 165.263C261.955 165.173 261.705 164.873 261.505 164.513C261.305 164.143 261.115 163.723 260.965 163.273C260.815 162.823 260.675 162.343 260.555 161.863C260.505 161.623 260.435 161.363 260.395 161.143C260.365 160.923 260.315 160.703 260.295 160.473C260.115 158.663 260.575 156.713 261.435 155.033C261.875 154.203 262.415 153.413 263.055 152.803C263.685 152.183 264.425 151.743 265.115 151.643C265.205 151.643 265.285 151.613 265.375 151.613H265.605H265.655L265.755 151.633L265.945 151.663C266.075 151.693 266.195 151.733 266.325 151.783C266.445 151.853 266.575 151.893 266.695 151.973C267.195 152.273 267.665 152.733 268.085 153.293C268.125 153.323 268.205 153.353 268.245 153.363V153.363Z" fill="var(--color-status-hover)"></path>
<path d="M204.971 53.05C205.681 51.32 204.361 50.89 203.671 50.82C203.561 50.8 203.541 50.82 203.481 50.84L201.541 51.89L199.521 52.8C196.741 53.97 193.861 54.95 190.881 55.62L189.771 55.89L188.651 56.11C187.901 56.25 187.151 56.41 186.401 56.54C184.891 56.76 183.381 57.02 181.851 57.17C178.811 57.53 175.731 57.7 172.651 57.8L170.341 57.86H168.021C167.101 57.88 166.821 57.87 166.361 57.86L165.051 57.84C165.051 57.84 164.571 57.86 163.861 57.9C163.151 57.93 162.201 57.96 161.261 58C159.381 58.07 157.531 58.12 157.691 58.16C155.801 58.28 154.331 58.53 154.581 58.88H154.571L152.371 57.39H152.381L154.121 56.83C157.371 55.76 160.611 54.53 163.711 52.94C165.101 52.23 166.461 51.45 167.791 50.61C167.841 50.56 167.901 50.43 167.921 50.4C168.511 48.6 167.191 48.27 166.501 48.25C166.391 48.25 166.371 48.25 166.321 48.29C165.081 49.08 163.791 49.82 162.481 50.49C159.681 51.93 156.721 53.08 153.681 54.09L152.541 54.46L151.201 54.88L146.531 56.3L146.241 56.39H146.201L146.231 56.42L146.291 56.46L146.411 56.55L146.901 56.9L147.881 57.6L149.851 58.99L151.351 60.02L152.371 60.71L154.211 61.92C154.211 61.92 155.901 62.88 157.581 63.78C159.261 64.68 160.921 65.51 160.791 65.41C163.641 66.7 165.641 67.16 161.651 64.15C160.501 63.22 159.081 62.15 157.961 61.29C156.831 60.44 156.001 59.81 156.001 59.81L154.871 59.07C155.281 59.25 156.111 59.46 157.541 59.68C159.001 59.94 160.781 60.19 162.191 60.34C163.601 60.5 164.661 60.59 164.661 60.59L167.471 60.62C169.071 60.62 170.661 60.62 172.261 60.56C173.861 60.54 175.461 60.43 177.051 60.36C178.651 60.23 180.251 60.14 181.841 59.94C185.031 59.61 188.221 59.07 191.361 58.34C194.511 57.64 197.611 56.59 200.611 55.33L202.751 54.36L204.831 53.24C204.881 53.2 204.961 53.07 204.971 53.04V53.05Z" fill="var(--color-status-hover)"></path>
<path d="M209.771 24.35L210.901 24.69C211.281 24.8 211.651 24.92 212.041 25.02L213.191 25.29C213.261 25.29 213.401 25.25 213.431 25.23C215.121 24.41 214.421 23.21 213.961 22.7C213.891 22.62 213.871 22.61 213.811 22.59L212.741 22.34C212.391 22.25 212.041 22.13 211.691 22.03L210.641 21.71L209.611 21.34C204.181 19.36 199.221 16.1 195.071 12.03C194.561 11.54 194.061 11.04 193.591 10.51C193.591 10.51 193.251 10.19 192.751 9.69998C192.261 9.19998 191.621 8.53001 190.991 7.85001C189.751 6.48001 188.641 5.04 188.701 5.19C188.291 4.72 187.921 4.28 187.591 3.91C189.391 4.28 191.081 4.74998 190.941 4.66998C192.421 5.00998 193.601 5.35 193.951 5.25C194.301 5.17 193.841 4.42999 191.541 3.26999C190.201 2.55999 188.521 1.88998 187.151 1.38998C185.901 0.989984 184.731 0.640005 183.871 0.380005C183.431 0.250005 183.091 0.150007 182.851 0.0700073C182.791 0.0500073 182.741 0.039989 182.691 0.019989C182.671 0.019989 182.651 0.01 182.631 0C182.631 0 182.631 0.0300085 182.631 0.0400085C182.641 0.100009 182.651 0.130005 182.651 0.130005L183.361 2.62L183.581 3.44998C183.541 3.55998 183.511 3.66999 183.481 3.76999C183.451 3.86999 183.461 3.89999 183.481 3.95999C183.731 4.59999 183.961 5.25 184.181 5.91C184.571 7.59 184.941 9.31 185.481 11.06C185.641 11.56 185.821 12.07 186.011 12.57C185.811 12.63 185.611 12.69 186.011 12.57C186.021 12.6 186.031 12.63 186.041 12.66L186.081 12.76V12.78L186.091 12.79C191.311 11.18 187.541 12.34 188.701 11.98L188.691 11.93L188.651 11.73L188.561 11.33L188.371 10.54C188.121 9.48001 187.831 8.43999 187.531 7.39999C187.301 6.60999 187.051 5.82999 186.781 5.04999C186.721 4.77999 186.661 4.50999 186.591 4.23999C186.761 4.67999 187.001 5.23998 187.361 5.94998C188.011 7.30998 188.961 8.88001 189.801 10.07C190.621 11.27 191.311 12.1 191.311 12.1L192.201 13.06L193.131 13.98C197.541 18.3 202.811 21.79 208.651 23.92C209.021 24.05 209.391 24.2 209.761 24.32L209.771 24.35Z" fill="var(--color-status-hover)"></path>
<defs>
<filter id="filter0_d_2074_50527--inject-7" x="13.906" y="48.3617" width="338.432" height="268.866" filterUnits="userSpaceOnUse" color-interpolation-filters="sRGB">
<feFlood flood-opacity="0" result="BackgroundImageFix"></feFlood>
<feColorMatrix in="SourceAlpha" type="matrix" values="0 0 0 0 0 0 0 0 0 0 0 0 0 0 0 0 0 0 127 0" result="hardAlpha"></feColorMatrix>
<feOffset dy="3.45542"></feOffset>
<feGaussianBlur stdDeviation="6.04699"></feGaussianBlur>
<feComposite in2="hardAlpha" operator="out"></feComposite>
<feColorMatrix type="matrix" values="0 0 0 0 0.141176 0 0 0 0 0.337255 0 0 0 0 0.905882 0 0 0 0.15 0"></feColorMatrix>
<feBlend mode="normal" in2="BackgroundImageFix" result="effect1_dropShadow_2074_50527"></feBlend>
<feBlend mode="normal" in="SourceGraphic" in2="effect1_dropShadow_2074_50527" result="shape"></feBlend>
</filter>
<filter id="filter1_d_2074_50527--inject-7" x="138.905" y="105.361" width="310.749" height="217.782" filterUnits="userSpaceOnUse" color-interpolation-filters="sRGB">
<feFlood flood-opacity="0" result="BackgroundImageFix"></feFlood>
<feColorMatrix in="SourceAlpha" type="matrix" values="0 0 0 0 0 0 0 0 0 0 0 0 0 0 0 0 0 0 127 0" result="hardAlpha"></feColorMatrix>
<feOffset dy="3.45542"></feOffset>
<feGaussianBlur stdDeviation="6.04699"></feGaussianBlur>
<feComposite in2="hardAlpha" operator="out"></feComposite>
<feColorMatrix type="matrix" values="0 0 0 0 0.141176 0 0 0 0 0.337255 0 0 0 0 0.905882 0 0 0 0.15 0"></feColorMatrix>
<feBlend mode="normal" in2="BackgroundImageFix" result="effect1_dropShadow_2074_50527"></feBlend>
<feBlend mode="normal" in="SourceGraphic" in2="effect1_dropShadow_2074_50527" result="shape"></feBlend>
</filter>
<linearGradient id="paint0_linear_2074_50527--inject-7" x1="159.513" y1="27.5993" x2="96.5224" y2="201.06" gradientUnits="userSpaceOnUse">
<stop offset="0.387401" stop-color="#E5E8F0"></stop>
<stop offset="1" stop-color="white" stop-opacity="0.85"></stop>
</linearGradient>
<linearGradient id="paint1_linear_2074_50527--inject-7" x1="137.65" y1="34.2661" x2="181.723" y2="181.983" gradientUnits="userSpaceOnUse">
<stop stop-color="#EDF2FF"></stop>
<stop offset="1" stop-color="white" stop-opacity="0.58"></stop>
</linearGradient>
<linearGradient id="paint2_linear_2074_50527--inject-7" x1="161.06" y1="27.14" x2="100.369" y2="198.743" gradientUnits="userSpaceOnUse">
<stop offset="0.387401" stop-color="#E5E8F0"></stop>
<stop offset="1" stop-color="white" stop-opacity="0.85"></stop>
</linearGradient>
<linearGradient id="paint3_linear_2074_50527--inject-7" x1="297.176" y1="61.2054" x2="294.923" y2="211.92" gradientUnits="userSpaceOnUse">
<stop stop-color="#EDF2FF"></stop>
<stop offset="1" stop-color="white" stop-opacity="0.58"></stop>
</linearGradient>
</defs>
</svg>