<svg xmlns="http://www.w3.org/2000/svg" width="43" height="47" viewBox="0 0 43 47" fill="none" data-inject-url="https://secureclientstorage.s3.amazonaws.com/late_payments_KWUW8ZX.svg?X-Amz-Algorithm=AWS4-HMAC-SHA256&amp;X-Amz-Credential=AKIAJMN2KCFC4N5LU6JQ%2F20231106%2Fus-east-2%2Fs3%2Faws4_request&amp;X-Amz-Date=20231106T173817Z&amp;X-Amz-Expires=3600&amp;X-Amz-SignedHeaders=host&amp;X-Amz-Signature=a10ddb10b6aafd769d7f3ea33b0437e89f7362492aedd83644f8af569c01be19" id="dispute_lp" class="img-svginject" style="height: 100%" crossorigin="anonymous">
<path d="M7.26494 35.0874C8.10926 36.4709 9.21805 37.6916 10.4998 38.7292C10.4998 38.7495 10.4794 38.7699 10.4794 38.8004C10.4794 38.7597 9.83858 39.5328 9.66564 39.7464C9.31978 40.1533 8.96374 40.5602 8.59754 40.9569C7.39719 42.2692 6.06459 43.4187 5.03717 44.8937C4.86424 45.1378 5.09821 45.4633 5.36269 45.4633C6.98011 45.4938 8.59754 45.4633 10.215 45.504C10.3675 45.504 10.4693 45.4328 10.5201 45.3311C10.5201 45.3311 10.5303 45.3311 10.5405 45.3107C11.6289 43.8764 13.0226 42.4726 13.816 40.8349C18.8514 43.3373 25.1888 43.7849 30.0411 41.6893C30.5701 41.4554 31.0888 41.2011 31.5873 40.9264C31.6076 40.9468 31.6076 40.9671 31.628 40.9773C33.2556 42.2895 34.4966 44.029 35.5546 45.8194C35.6156 45.9313 35.758 46.0228 35.8801 46.0126C37.3246 45.9007 38.7691 45.8906 40.2135 45.8906C40.4984 45.8906 40.6103 45.6464 40.5696 45.4328C40.5899 45.3311 40.5696 45.2192 40.4882 45.1276C38.6978 42.9304 37.1008 40.3669 34.7204 38.7495C41.0884 33.2564 43.5603 23.6739 38.6063 16.2684C32.9606 7.82522 21.2623 5.23124 12.7682 10.6939C4.64045 15.9225 1.6294 26.9596 7.25477 35.0772L7.26494 35.0874ZM10.042 44.7411C8.73995 44.7207 7.44805 44.7207 6.14597 44.7106C7.17339 43.4085 8.4246 42.2997 9.5334 41.0586C9.9403 40.6009 10.7948 39.8786 11.1203 39.1971C11.7612 39.6752 12.4427 40.1126 13.1548 40.4992C12.3919 42.0454 11.1101 43.3881 10.0522 44.7411H10.042ZM35.9309 40.7331C35.9309 40.7331 35.8699 40.7535 35.8496 40.7636L35.8292 40.7433C35.6258 40.6111 35.4427 40.7026 35.3409 40.8552C35.2392 40.8654 35.1477 40.9162 35.0866 40.9874C34.8221 40.9468 34.5068 41.2417 34.6696 41.5571C34.8628 41.9436 35.2494 42.2285 35.4935 42.5845C35.9513 43.2254 36.3785 43.8968 36.7753 44.5783C36.9685 44.914 37.4161 44.7411 37.4772 44.4461C37.528 44.4359 37.5687 44.4156 37.6094 44.3952C37.7518 44.4359 37.8942 44.385 37.996 44.2833C38.0265 44.3342 38.0672 44.385 38.0977 44.4359C38.3113 44.8326 38.881 44.5376 38.7894 44.1612C39.0539 44.5071 39.3184 44.853 39.5829 45.1988C38.3927 45.3006 36.2565 45.504 36.0123 45.0768C35.0358 43.4187 33.7947 41.7809 32.2994 40.5602C32.9504 40.1635 33.5709 39.7362 34.1609 39.2683C34.1813 39.2785 34.1813 39.2988 34.2016 39.309C34.8425 39.7261 35.4121 40.2143 35.9615 40.7433L35.9309 40.7331ZM37.9451 16.6549C44.0486 25.0065 38.8097 36.6235 30.2242 40.7942C23.1136 44.2426 12.0867 41.5266 7.92615 34.7009C2.53475 26.9291 5.39321 17.1941 12.6055 11.7416C20.7943 5.56693 32.1976 8.78143 37.9553 16.6549H37.9451Z" fill="var(--color-status-default)"></path>
<path d="M9.01703 33.8668C13.8083 40.4382 23.8892 42.2286 30.7658 38.1291C37.2761 34.2534 38.8325 25.0473 35.9944 18.4657C34.5296 15.0884 31.5083 12.8403 28.2125 11.4467C23.5738 9.49359 18.864 9.46307 14.5102 11.996C7.7353 16.8178 3.65614 26.4918 9.0272 33.8566L9.01703 33.8668ZM14.8865 12.6572C21.7733 8.64926 31.8033 11.5891 35.3332 18.8421C38.3849 25.1185 36.1673 33.643 30.3792 37.4577C23.9807 41.6691 14.8865 39.3599 10.0444 33.9177C4.06304 27.2038 8.52875 17.1738 14.8865 12.647V12.6572Z" fill="var(--color-status-default)"></path>
<path d="M28.9415 6.09545C28.9415 6.09545 28.9415 6.13614 28.9517 6.15649V6.17683C28.972 6.24804 29.0127 6.31925 29.0941 6.38028C32.685 8.95391 36.1843 12.0057 40.4364 13.4095C40.5381 13.44 40.6297 13.4298 40.7009 13.3891C40.7823 13.3891 40.8636 13.3586 40.9348 13.2772C42.9592 11.0698 42.7862 7.61116 41.2095 5.11891C42.4098 3.73545 42.5319 1.02956 40.6398 0.195421C39.0834 -0.486134 37.2422 0.724393 36.5709 2.13837C33.6208 1.84336 30.1012 3.32855 28.9517 5.86149C28.911 5.94287 28.911 6.02425 28.9313 6.09545H28.9415ZM41.6469 9.34047C41.6469 9.34047 41.6469 9.4015 41.6469 9.43202C41.6062 9.41167 41.5655 9.38116 41.5248 9.36082C41.5655 9.36082 41.6062 9.36082 41.6469 9.34047ZM39.9379 0.795608C41.7181 0.876988 41.535 3.39975 40.7619 4.4882C40.2329 3.81682 39.5819 3.23699 38.8393 2.81992C38.3816 2.56561 37.8831 2.39268 37.344 2.27061C37.8424 1.36526 38.9003 0.754918 39.9278 0.795608H39.9379ZM37.2015 3.06406C38.7579 3.3082 39.9786 4.37631 40.7416 5.74959C40.3347 5.44442 39.8871 5.20027 39.4191 5.20027C39.0428 5.20027 38.9614 5.64787 39.1547 5.85132C39.1038 5.95305 39.0936 6.06494 39.1241 6.17683C38.7986 6.20735 38.5952 6.68547 38.9512 6.86857C38.9817 6.88891 39.0224 6.89907 39.0529 6.91942C38.7783 7.02114 38.7172 7.5196 39.0834 7.65184C39.1038 7.65184 39.114 7.66201 39.1343 7.67219C38.9817 7.85529 39.0021 8.20116 39.2971 8.31306C39.6531 8.4453 40.0091 8.57754 40.355 8.7403C40.1617 8.65892 39.9685 8.59788 39.765 8.54702C39.2869 8.42495 39.0835 9.16754 39.5616 9.27944C40.2838 9.46254 40.9043 9.86943 41.535 10.256C41.5248 10.3374 41.5045 10.4188 41.4842 10.49C40.65 10.0932 39.8159 9.70667 39.0224 9.23874C38.7376 9.06581 38.4731 9.32012 38.4629 9.57443C38.2188 9.65581 38.0459 9.97117 38.3002 10.1848C38.4019 10.2763 38.5036 10.3374 38.6053 10.4187C38.1883 10.3374 38.0357 10.9986 38.4629 11.1613C39.2564 11.4563 39.9786 11.9243 40.7619 12.2396C40.6805 12.3617 40.5788 12.4838 40.4771 12.6058C36.4895 11.2427 33.1529 8.38426 29.7756 5.94287C31.1286 3.46079 34.5567 2.63682 37.171 3.04371L37.2015 3.06406Z" fill="var(--color-status-default)"></path>
<path d="M1.18296 7.85487C0.0232963 10.5506 0.470885 14.1822 2.62745 15.9216C2.719 15.9929 2.81055 16.0132 2.9021 16.003C2.99365 16.0437 3.10555 16.0437 3.21745 15.9928C7.23557 14.0194 10.2771 10.4794 13.4611 7.43782C13.4713 7.42764 13.4815 7.40729 13.4916 7.39712C13.4916 7.39712 13.5018 7.37678 13.512 7.37678C13.5323 7.34627 13.5527 7.31574 13.5628 7.28522C13.5628 7.26487 13.573 7.23436 13.573 7.20384C13.573 7.18349 13.573 7.17333 13.573 7.15299C13.573 7.1123 13.5628 7.0716 13.5425 7.03091C13.5425 7.03091 13.5425 7.03091 13.5425 7.02074C13.5425 7.0004 13.5425 6.99022 13.5222 6.96988C11.9353 4.43693 8.39523 3.70451 5.49608 4.37589C4.66194 2.98227 2.75969 2.19899 1.24399 2.88054C-0.688777 3.73503 -0.0987733 6.67488 1.18296 7.83454V7.85487ZM1.4271 12.2596C1.4271 12.2596 1.40675 12.168 1.40675 12.1171C1.46779 12.1375 1.52882 12.1375 1.58986 12.1171C1.53899 12.1578 1.47796 12.2087 1.4271 12.2494V12.2596ZM12.6982 7.14281C9.68714 10.042 6.78798 13.3378 3.014 15.2503C2.9021 15.1485 2.78003 15.0468 2.67831 14.9349C3.43107 14.5077 4.08211 13.9278 4.84504 13.5209C5.24177 13.3073 4.94677 12.7377 4.55004 12.8292C4.63142 12.7478 4.72297 12.6766 4.79418 12.5851C5.0078 12.3308 4.8247 12.0052 4.59073 11.934C4.51952 11.7001 4.19401 11.5271 3.93969 11.7306C3.23779 12.3003 2.47486 12.7885 1.71192 13.2768C1.70175 13.2768 1.69158 13.2971 1.68141 13.3073C1.65089 13.2259 1.62037 13.1547 1.60003 13.0734C2.15951 12.6156 2.70883 12.107 3.39038 11.8323C3.83797 11.6492 3.64469 10.9168 3.18693 11.0999C2.96314 11.1914 2.74952 11.3033 2.54607 11.4254C2.89193 11.2016 3.23779 10.9982 3.604 10.8049C3.88883 10.6523 3.81762 10.337 3.62435 10.1844C3.65487 10.164 3.69556 10.1437 3.72607 10.1233C4.07194 9.94024 3.899 9.49264 3.59383 9.43161C3.61417 9.41126 3.64469 9.40109 3.66504 9.38074C4.00073 9.14678 3.78711 8.64834 3.47176 8.65851C3.47176 8.55678 3.44124 8.46523 3.38021 8.38385C3.56331 8.16005 3.35986 7.70229 2.97331 7.76333C2.54607 7.82436 2.15951 8.10919 1.81365 8.44488C2.26124 7.34625 2.99366 6.39004 3.96004 5.75935C6.39126 4.18262 10.8977 4.75228 12.6677 7.14281H12.6982ZM1.85434 3.48073C2.87159 3.13486 4.11263 3.78589 4.73315 4.63021C4.33642 4.76245 3.96004 4.91504 3.61418 5.10831C2.73934 5.57625 2.05779 6.28832 1.55934 7.14281C0.653988 6.09504 0.28778 4.01986 1.86451 3.4909L1.85434 3.48073Z" fill="var(--color-status-default)"></path>
<path d="M17.9152 35.5355C18.8205 35.4236 19.441 34.0198 19.8072 33.3484C20.3769 32.3006 20.9059 31.1715 21.2822 30.0322C21.3331 30.0322 21.384 30.0322 21.4348 30.0322C22.2791 29.9406 22.8386 29.4117 23.1031 28.6996C24.7714 28.7199 26.4295 28.7911 28.0978 28.7098C29.054 28.6691 30.8647 28.7098 31.4344 27.7536C32.5737 25.831 23.3879 26.5735 22.6657 26.6244C22.6657 26.6244 22.6657 26.6244 22.6555 26.6244C22.391 26.4515 22.0757 26.3396 21.74 26.2785C21.7807 24.7323 22.3402 17.3268 20.7126 17.3268C18.8103 17.3268 19.5326 25.4342 19.7055 26.6549C19.1562 27.0517 18.8714 27.7129 19.0239 28.547C19.0646 28.7708 19.1664 28.9641 19.2783 29.137C18.8002 30.6425 17.7422 31.9243 17.2031 33.4094C16.9895 34.0096 16.8267 35.6677 17.905 35.5355H17.9152ZM27.1416 27.133C27.9249 27.1127 28.698 27.133 29.4812 27.1839C29.9288 27.2144 31.2004 27.3975 30.1323 27.7027C27.9859 28.313 25.5038 27.9875 23.276 27.9367C23.276 27.9163 23.276 27.896 23.276 27.8756C23.2862 27.6722 23.2557 27.5094 23.215 27.3466C24.5273 27.2551 25.8293 27.1737 27.1416 27.133ZM20.3158 22.3113C20.326 21.4568 20.3769 20.6023 20.4481 19.758C20.4786 19.402 20.5396 19.0561 20.6007 18.7102C20.621 18.5882 20.6617 18.4763 20.6922 18.3542C21.089 19.5444 20.9567 21.1313 20.9771 22.3418C21.0076 23.6337 20.9771 24.9358 20.9771 26.2277C20.9262 26.2277 20.8855 26.2277 20.8346 26.2277C20.6922 26.248 20.5498 26.2684 20.4176 26.3091C20.2548 24.9968 20.2853 23.6337 20.3057 22.3113H20.3158ZM20.8448 26.9906C21.445 26.9398 22.4114 26.9296 22.5131 27.7129C22.6047 28.4453 22.1571 29.0658 21.4653 29.2387C20.9364 29.371 20.2752 29.1574 19.9395 28.7199C19.3495 27.9367 20.0107 27.0822 20.8448 26.9906ZM17.8236 34.0401C17.9355 33.3993 18.2712 32.7889 18.5764 32.2193C19.0138 31.3851 19.5427 30.5612 19.8886 29.6761C20.0819 29.788 20.2955 29.8694 20.5193 29.9305C20.0005 31.5174 19.2172 33.3077 18.1288 34.5386C17.7219 34.9963 17.7727 34.4063 17.8338 34.0401H17.8236Z" fill="var(--color-status-default)"></path>
<path d="M10.3774 29.1055C10.8657 29.5225 11.5269 29.2581 11.9643 28.9122C12.361 28.5969 12.8086 28.0577 12.7577 27.5186C12.6662 26.6844 11.6998 26.7353 11.0894 26.8472C11.0182 26.8574 10.9674 26.8879 10.9267 26.9286C10.4893 27.1625 9.93996 27.6 9.98065 28.1493C10.001 28.5053 10.1027 28.8715 10.3876 29.1157L10.3774 29.1055ZM11.3132 27.5796C11.4963 27.5491 11.6896 27.5186 11.8727 27.5491C11.9846 27.5694 11.9948 27.6101 11.9948 27.5694C12.0151 27.7831 11.7812 28.0577 11.6184 28.2103C11.4353 28.3934 11.181 28.5765 10.9165 28.5663C10.8758 28.5663 10.8148 28.4545 10.7843 28.4036C10.6215 27.9967 10.9877 27.7525 11.3132 27.5796Z" fill="var(--color-status-default)"></path>
<path d="M21.5369 14.773C21.5776 14.712 21.598 14.651 21.598 14.5899C21.7709 14.0305 21.7811 13.3998 21.3131 12.9827C21.0792 12.7792 20.7231 12.6368 20.418 12.6775C19.7873 12.7589 19.5126 13.3896 19.4516 13.9592C19.4007 14.4577 19.4516 15.1494 19.889 15.4851C20.54 16.0039 21.1809 15.2919 21.5369 14.7832V14.773ZM20.4383 13.4405C20.4383 13.4405 20.54 13.4201 20.6316 13.4405C21.069 13.5727 20.9673 14.061 20.8554 14.3967C20.7435 14.5594 20.6214 14.7324 20.4485 14.8443C20.4078 14.8748 20.3875 14.8748 20.3773 14.8748C20.2145 14.7324 20.1942 14.3967 20.1942 14.1729C20.1942 13.9186 20.2349 13.6032 20.4383 13.4201V13.4405Z" fill="var(--color-status-default)"></path>
<path d="M33.7542 28.1592C33.8152 28.1999 33.8762 28.2202 33.9373 28.2202C34.4968 28.383 35.1376 28.4033 35.5445 27.9354C35.748 27.7014 35.8904 27.3454 35.8497 27.0402C35.7683 26.4095 35.1376 26.1348 34.568 26.0738C34.0695 26.0229 33.3778 26.0738 33.0421 26.5112C32.5233 27.1623 33.2354 27.8133 33.744 28.1592H33.7542ZM34.334 26.8164C34.5883 26.8164 34.9036 26.8571 35.0868 27.0605C35.1173 27.0911 35.0969 27.1623 35.0766 27.2437C34.9443 27.6811 34.4561 27.5793 34.1204 27.4776C33.9576 27.3657 33.7847 27.2436 33.6728 27.0707C33.6423 27.03 33.6423 27.0097 33.6321 26.9995C33.7847 26.8367 34.1102 26.8164 34.334 26.8164Z" fill="var(--color-status-default)"></path>
<path d="M21.0993 36.3387C21.0586 36.3998 21.0383 36.4608 21.0383 36.5218C20.784 37.3865 21.0993 38.4851 22.1674 38.4444C22.8286 38.4139 23.1236 37.7222 23.1847 37.1627C23.2355 36.6643 23.1847 35.9725 22.7473 35.6368C22.0962 35.1181 21.4554 35.8301 21.0993 36.3387ZM22.198 37.6612C22.198 37.6612 22.0759 37.6917 21.9742 37.6408C21.5774 37.4679 21.6588 37.0406 21.7707 36.6948C21.8826 36.532 22.0047 36.3591 22.1776 36.2472C22.2793 36.176 22.2386 36.1963 22.2692 36.2167C22.4319 36.3693 22.4421 36.7355 22.4319 36.9694C22.4319 37.1831 22.3709 37.5391 22.1878 37.6612H22.198Z" fill="var(--color-status-default)"></path>
<path d="M12.5869 20.1548C12.8005 20.0938 13.1261 20.3684 13.2685 20.5007C13.6347 20.8262 14.1738 20.2871 13.8076 19.9615C13.4516 19.636 12.8921 19.2698 12.3835 19.4224C11.9155 19.5648 12.1088 20.2972 12.5869 20.1548Z" fill="var(--color-status-default)"></path>
<path d="M29.4623 19.5829C30.0015 19.3388 30.3779 18.9115 30.6525 18.3927C30.8865 17.9553 30.2253 17.5688 29.9913 18.0062C29.7675 18.4233 29.5132 18.7284 29.0758 18.9217C28.6282 19.1251 29.0148 19.7762 29.4623 19.5829Z" fill="var(--color-status-default)"></path>
<path d="M13.2686 33.0732C12.8617 33.3478 13.2482 34.009 13.6551 33.7344C13.9806 33.5207 14.2553 33.297 14.4994 32.9816C14.7944 32.5951 14.1332 32.2085 13.8382 32.5951C13.6856 32.7985 13.4822 32.9307 13.2686 33.0732Z" fill="var(--color-status-default)"></path>
<path d="M37.6926 22.3208C37.8655 22.7786 38.598 22.5751 38.425 22.1174C38.4047 22.0563 38.3843 21.9851 38.3538 21.9241C38.5878 22.0157 38.9438 21.8122 38.893 21.4663C38.6895 20.2355 37.9673 19.2081 37.54 18.0484C38.4454 19.1063 38.7099 20.5712 39.2083 21.8427C39.3914 22.3005 40.1238 22.097 39.9407 21.6393C39.3609 20.1846 39.0659 18.557 37.9673 17.3668C37.7333 17.1125 37.4078 17.3058 37.3366 17.5601C37.1128 17.3058 36.6245 17.4787 36.6754 17.8551C36.4312 17.4279 35.77 17.8144 36.0142 18.2417C36.7466 19.5234 37.1636 20.9272 37.6723 22.3107L37.6926 22.3208Z" fill="var(--color-status-default)"></path>
</svg>