<svg width="20" height="12" viewBox="0 0 20 12" fill="none" xmlns="http://www.w3.org/2000/svg">
<path id="Vector" d="M19.2667 4.25837L16.0417 1.00004C15.9642 0.921932 15.872 0.859936 15.7705 0.817629C15.6689 0.775322 15.56 0.75354 15.45 0.75354C15.34 0.75354 15.2311 0.775322 15.1295 0.817629C15.028 0.859936 14.9358 0.921932 14.8583 1.00004C14.7031 1.15617 14.616 1.36738 14.616 1.58754C14.616 1.80769 14.7031 2.0189 14.8583 2.17504L17.825 5.16671H0.833333C0.61232 5.16671 0.400358 5.2545 0.244078 5.41078C0.0877974 5.56706 0 5.77903 0 6.00004C0 6.22105 0.0877974 6.43301 0.244078 6.58929C0.400358 6.74557 0.61232 6.83337 0.833333 6.83337H17.875L14.8583 9.84171C14.7802 9.91918 14.7182 10.0113 14.6759 10.1129C14.6336 10.2144 14.6118 10.3234 14.6118 10.4334C14.6118 10.5434 14.6336 10.6523 14.6759 10.7539C14.7182 10.8554 14.7802 10.9476 14.8583 11.025C14.9358 11.1031 15.028 11.1651 15.1295 11.2074C15.2311 11.2498 15.34 11.2715 15.45 11.2715C15.56 11.2715 15.6689 11.2498 15.7705 11.2074C15.872 11.1651 15.9642 11.1031 16.0417 11.025L19.2667 7.79171C19.7348 7.32295 19.9978 6.68754 19.9978 6.02504C19.9978 5.36254 19.7348 4.72712 19.2667 4.25837Z" fill="white"/>
</svg>
