<svg width="16" height="16" viewBox="0 0 16 16" fill="none" xmlns="http://www.w3.org/2000/svg">
<g id="Icon">
<path id="Vector" d="M15.5229 2.718C15.3307 2.49296 15.09 2.31197 14.818 2.18788C14.546 2.06379 14.2493 1.99964 13.949 2H2.89914L2.87044 1.766C2.81169 1.27961 2.57204 0.831155 2.1969 0.505652C1.82177 0.180149 1.33723 0.000227862 0.83516 0L0.683437 0C0.502178 0 0.328344 0.0702379 0.200174 0.195262C0.0720048 0.320286 0 0.489856 0 0.666667C0 0.843478 0.0720048 1.01305 0.200174 1.13807C0.328344 1.2631 0.502178 1.33333 0.683437 1.33333H0.83516C1.00256 1.33335 1.16412 1.3933 1.28922 1.50181C1.41431 1.61032 1.49423 1.75983 1.51381 1.922L2.45422 9.722C2.55185 10.5332 2.95141 11.2812 3.57705 11.824C4.20269 12.3668 5.01086 12.6667 5.84817 12.6667H12.9853C13.1666 12.6667 13.3404 12.5964 13.4686 12.4714C13.5967 12.3464 13.6687 12.1768 13.6687 12C13.6687 11.8232 13.5967 11.6536 13.4686 11.5286C13.3404 11.4036 13.1666 11.3333 12.9853 11.3333H5.84817C5.42516 11.3322 5.01288 11.2034 4.66783 10.9647C4.32279 10.726 4.06188 10.389 3.92088 10H12.0675C12.8686 10 13.6444 9.72549 14.2591 9.22429C14.8739 8.7231 15.2885 8.02713 15.4306 7.258L15.9671 4.35533C16.0207 4.06734 16.0087 3.77138 15.9319 3.48843C15.8551 3.20547 15.7155 2.94245 15.5229 2.718Z" fill="white"/>
<path id="Vector_2" d="M4.78405 16C5.53895 16 6.15092 15.4031 6.15092 14.6667C6.15092 13.9303 5.53895 13.3334 4.78405 13.3334C4.02915 13.3334 3.41718 13.9303 3.41718 14.6667C3.41718 15.4031 4.02915 16 4.78405 16Z" fill="white"/>
<path id="Vector_3" d="M11.6185 16C12.3734 16 12.9853 15.4031 12.9853 14.6667C12.9853 13.9303 12.3734 13.3334 11.6185 13.3334C10.8636 13.3334 10.2516 13.9303 10.2516 14.6667C10.2516 15.4031 10.8636 16 11.6185 16Z" fill="white"/>
</g>
</svg>
